<?xml version="1.0" encoding="utf-8"?>
<!-- Generator: Adobe Illustrator 16.0.4, SVG Export Plug-In . SVG Version: 6.00 Build 0)  -->
<!DOCTYPE svg PUBLIC "-//W3C//DTD SVG 1.1//EN" "http://www.w3.org/Graphics/SVG/1.1/DTD/svg11.dtd">
<svg version="1.1" id="Layer_1" xmlns="http://www.w3.org/2000/svg" xmlns:xlink="http://www.w3.org/1999/xlink" x="0px" y="0px"
	 width="925.453px" height="250.488px" viewBox="0 0 925.453 250.488" enable-background="new 0 0 925.453 250.488"
	 xml:space="preserve">
<g>
	<path fill="#FFFFFF" d="M233.769,94.235c4.637-9.819,19.83-10.765,24.659,0.753c0.362-0.604,0.675-1.116,0.978-1.634
		c4.262-7.283,14.754-8.983,21.127-3.438c2.679,2.331,3.82,5.366,4.099,8.795c0.101,1.241,0.108,2.492,0.108,3.739
		c-0.002,10.948-0.016,21.896-0.026,32.845c0,0.555,0.006,1.109-0.024,1.663c-0.058,1.062-0.66,1.734-1.688,1.752
		c-3.186,0.057-6.374,0.056-9.561,0c-1.035-0.018-1.625-0.693-1.675-1.756c-0.027-0.553-0.022-1.107-0.022-1.663
		c0.006-9.216,0.025-18.432,0.01-27.647c-0.002-1.45-0.029-2.92-0.265-4.346c-0.63-3.801-3.803-5.554-7.423-4.188
		c-2.103,0.793-3.539,2.294-3.91,4.487c-0.368,2.171-0.532,4.397-0.549,6.603c-0.061,8.176-0.024,16.353-0.025,24.53
		c0,3.949-0.081,4.025-4.107,4.025c-2.217,0-4.436,0.03-6.652-0.013c-1.66-0.032-2.211-0.604-2.317-2.254
		c-0.031-0.483-0.009-0.97-0.009-1.455c0.009-8.8,0.05-17.601,0.003-26.4c-0.011-1.994-0.139-4.026-0.55-5.971
		c-0.533-2.517-2.131-3.762-4.448-3.96c-2.901-0.247-4.843,0.763-5.946,3.18c-1.03,2.258-1.185,4.685-1.19,7.116
		c-0.017,8.731-0.009,17.462-0.011,26.193c0,0.554,0.03,1.112-0.022,1.662c-0.115,1.22-0.613,1.835-1.798,1.86
		c-3.116,0.067-6.236,0.067-9.353,0.007c-1.191-0.024-1.671-0.627-1.784-1.86c-0.043-0.481-0.02-0.97-0.019-1.455
		c0.003-14.759,0.006-29.52,0.01-44.278c0-0.346-0.008-0.692,0.004-1.039c0.066-1.906,0.56-2.417,2.532-2.446
		c2.425-0.038,4.851-0.04,7.275-0.006c1.972,0.028,2.52,0.62,2.564,2.676C233.792,91.618,233.769,92.927,233.769,94.235z"/>
	<path fill="#FFFFFF" d="M199.02,132.951c-0.708,0.631-1.425,1.275-2.147,1.913c-5.044,4.453-10.974,5.426-17.313,4.045
		c-4.957-1.08-8.087-4.317-9.398-9.25c-0.933-3.509-0.864-7.015,0.293-10.444c1.557-4.613,4.784-7.701,9.212-9.582
		c3.545-1.505,7.311-2.073,11.101-2.515c2.123-0.247,4.246-0.487,6.632-0.761c-0.149-2.018-0.176-3.88-0.451-5.707
		c-0.346-2.302-1.871-3.729-4.073-4.209c-4.817-1.05-8.571,1.385-9.417,4.989c-0.441,1.881-0.891,2.08-2.85,1.905
		c-2.483-0.221-4.961-0.505-7.436-0.808c-1.768-0.216-2.3-0.962-1.904-2.685c1.063-4.628,3.601-8.198,7.749-10.565
		c2.433-1.389,5.062-2.204,7.828-2.638c3.734-0.586,7.455-0.583,11.16,0.16c8.302,1.668,12.433,6.582,12.559,15.089
		c0.085,5.751,0.149,11.509-0.019,17.257c-0.115,3.915,0.679,7.372,3.243,10.426c1.273,1.517,1.076,2.216-0.405,3.494
		c-1.941,1.675-3.878,3.355-5.839,5.008c-1.693,1.427-2.368,1.488-3.925-0.039C202.048,136.493,200.652,134.771,199.02,132.951z
		 M197.208,114.303c-2.214-0.435-5.44-0.114-7.869,0.736c-5.317,1.862-6.573,5.967-5.639,10.563
		c0.696,3.423,3.802,5.088,7.155,4.062c3.004-0.919,4.613-3.2,5.586-5.98C197.514,120.623,197.361,117.444,197.208,114.303z"/>
	<path fill="#FFFFFF" d="M322.273,132.993c-1.013,0.866-2.026,1.815-3.122,2.655c-5.32,4.08-11.313,4.758-17.532,2.906
		c-5.079-1.514-7.805-5.393-8.51-10.528c-0.306-2.231-0.284-4.605,0.122-6.817c1.03-5.618,4.526-9.368,9.709-11.587
		c3.476-1.488,7.179-2.041,10.897-2.488c2.125-0.256,4.255-0.475,6.583-0.732c0.089-2.074,0.245-4.039-0.24-6.005
		c-0.515-2.09-1.856-3.418-3.894-3.909c-4.52-1.09-8.594,0.995-9.592,4.986c-0.452,1.808-0.858,2.031-2.658,1.876
		c-2.622-0.229-5.239-0.513-7.849-0.851c-1.488-0.191-1.986-0.975-1.673-2.471c1.063-5.07,3.866-8.914,8.533-11.128
		c7.236-3.434,14.727-3.693,22.197-0.829c5.583,2.141,8.322,6.513,8.469,12.4c0.15,6.025,0.069,12.059,0.088,18.088
		c0.003,0.9,0.006,1.802,0.004,2.703c-0.005,2.504,0.704,4.776,2.191,6.8c0.452,0.613,0.934,1.209,1.338,1.854
		c0.821,1.312,0.766,1.865-0.386,2.879c-2.132,1.877-4.281,3.738-6.468,5.551c-1.307,1.083-2.062,1.128-3.284-0.055
		C325.517,136.666,324.001,134.87,322.273,132.993z M320.41,114.104c-2.954-0.153-5.684,0.11-8.297,1.128
		c-4.507,1.754-6.562,6.244-5.021,10.859c1.027,3.078,3.77,4.501,6.916,3.608c2.45-0.695,3.996-2.401,5.094-4.576
		C320.866,121.631,320.547,117.904,320.41,114.104z"/>
	<path fill="#FFFFFF" d="M447.427,95.368c0.535-0.956,1.027-1.938,1.611-2.864c3.231-5.131,7.779-6.482,13.688-5.595
		c5.305,0.796,8.894,4.418,9.936,9.838c0.469,2.438,0.751,4.946,0.771,7.426c0.089,10.605,0.054,21.212,0.049,31.819
		c-0.001,2.324-0.447,2.745-2.835,2.76c-2.496,0.017-4.991,0.02-7.487-0.001c-2.233-0.018-2.691-0.446-2.695-2.681
		c-0.015-8.318,0.017-16.637-0.002-24.956c-0.005-2.077-0.076-4.158-0.219-6.23c-0.066-0.954-0.272-1.932-0.602-2.831
		c-1.24-3.409-4.927-4.583-7.985-2.596c-1.333,0.866-2.163,2.114-2.719,3.576c-0.896,2.368-1.19,4.832-1.192,7.343
		c-0.006,8.249-0.008,16.499-0.012,24.748c0,0.485,0.02,0.973-0.009,1.456c-0.089,1.562-0.597,2.13-2.166,2.157
		c-2.911,0.05-5.823,0.052-8.734-0.004c-1.465-0.028-1.935-0.572-2.035-2.05c-0.033-0.483-0.012-0.971-0.012-1.456
		c-0.004-14.627-0.01-29.254-0.013-43.881c0-0.416-0.01-0.833,0.005-1.248c0.063-1.909,0.561-2.426,2.522-2.456
		c2.425-0.039,4.853-0.042,7.278-0.007c1.931,0.029,2.406,0.54,2.434,2.514c0.023,1.713,0.005,3.427,0.005,5.141
		C447.149,95.315,447.288,95.342,447.427,95.368z"/>
	<path fill="#FFFFFF" d="M427.935,113.422c-0.086,5.584-1.161,10.897-3.945,15.768c-3.033,5.306-7.409,8.959-13.508,10.142
		c-8.126,1.576-15.859-1.062-20.634-8.294c-2.292-3.471-3.599-7.305-4.259-11.382c-1.024-6.328-0.767-12.591,1.469-18.627
		c0.878-2.371,2.098-4.697,3.569-6.752c7.418-10.355,24.553-10.236,32.007,0.656c2.516,3.675,3.99,7.736,4.664,12.095
		C427.625,109.14,427.729,111.289,427.935,113.422z M413.63,113.395c0-1.937,0.179-3.893-0.045-5.802
		c-0.281-2.388-0.724-4.786-1.41-7.088c-0.712-2.387-2.488-3.726-5.063-3.926c-2.688-0.209-4.815,0.719-6.013,3.15
		c-0.722,1.466-1.307,3.079-1.549,4.687c-0.84,5.571-0.78,11.184,0.058,16.742c0.303,2.006,0.978,4.07,1.969,5.834
		c2.027,3.612,6.859,3.858,9.392,0.571c0.821-1.066,1.396-2.393,1.814-3.686C413.879,120.475,413.748,116.917,413.63,113.395z"/>
	<path fill="#FFFFFF" d="M362.832,98.031c-0.926-0.041-1.591-0.096-2.255-0.097c-4.229-0.011-8.458,0.004-12.687-0.017
		c-2.191-0.01-2.711-0.52-2.751-2.669c-0.031-1.663-0.031-3.328-0.002-4.991c0.039-2.229,0.493-2.694,2.691-2.699
		c7.557-0.015,15.113-0.007,22.67-0.007c2.288,0,4.576-0.026,6.863,0.013c1.768,0.031,2.238,0.479,2.295,2.209
		c0.055,1.662-0.006,3.327,0.017,4.991c0.021,1.498-0.808,2.616-1.608,3.749c-4.723,6.676-9.455,13.346-14.18,20.021
		c-0.716,1.012-1.415,2.036-2.355,3.389c1.091,0.051,1.875,0.102,2.659,0.12c4.624,0.109,9.044,1.056,13.307,2.903
		c2.277,0.987,3.374,2.454,3.204,4.96c-0.117,1.725,0.022,3.466-0.036,5.198c-0.074,2.205-1.095,2.801-3.122,1.875
		c-10.384-4.742-20.755-4.774-31.125,0.053c-1.993,0.927-2.986,0.285-3.03-1.973c-0.041-2.079,0.009-4.159-0.013-6.239
		c-0.023-2.083,0.597-3.91,1.814-5.62c5.467-7.678,10.882-15.393,16.31-23.099C361.92,99.498,362.297,98.862,362.832,98.031z"/>
	<path fill="#FFFFFF" d="M621.087,122.893c-2.168,0-4.158,0-6.277,0c-0.174-0.471-0.391-0.96-0.538-1.472
		c-2.724-9.442-11.403-15.253-21.85-14.525c-10.465,0.728-17.422,6.293-20.993,15.958c-3.394,9.183-3.302,18.507,0.351,27.62
		c3.079,7.686,8.551,12.842,16.872,14.539c12.805,2.61,23.262-4.081,26.284-16.802c0.304-1.27,0.517-2.561,0.79-3.942
		c2.055,0,4.029,0,6.267,0c-0.117,0.916-0.203,1.772-0.342,2.623c-0.62,3.792-1.795,7.398-3.684,10.754
		c-3.898,6.926-9.729,11.221-17.542,12.775c-5.766,1.147-11.467,0.793-17.021-1.065c-7.931-2.654-13.642-7.956-16.976-15.537
		c-5.275-11.998-5.286-24.159,0.396-36.001c6.054-12.614,18.048-17.3,30.158-16.292c6.171,0.514,11.739,2.618,16.441,6.737
		C617.774,112.072,620.271,116.884,621.087,122.893z"/>
	<path fill="#FFFFFF" d="M891.58,169.458c-1.796,0-3.423,0-5.277,0c0-2.781,0-5.438,0-8.198c-0.339,0.159-0.501,0.181-0.548,0.266
		c-6.829,12.281-27.256,13.387-34.96-0.824c-2.968-5.475-3.832-11.374-3.508-17.499c0.195-3.692,0.924-7.282,2.386-10.697
		c5.464-12.768,17.806-14.188,26.016-11.48c4.409,1.455,7.717,4.288,9.852,8.868c0.561-2.03,0.227-3.786,0.289-5.508
		c0.062-1.729,0.014-3.466,0.014-5.198c0-1.804,0-3.605,0-5.408c0-1.733,0-3.466,0-5.2c0-1.792,0-3.585,0-5.478
		c1.955-0.454,3.778-0.244,5.738-0.158C891.58,125.122,891.58,147.201,891.58,169.458z M853.175,143.925
		c-0.118,6.121,1.009,10.999,3.094,14.642c1.974,3.447,4.734,5.961,8.654,6.954c6.295,1.594,14.814,0.062,18.617-8.666
		c3.279-7.528,3.277-15.269-0.016-22.791c-3.287-7.51-10.207-10.21-17.824-8.812c-5.406,0.993-8.614,4.708-10.622,9.577
		C853.717,138.132,853.162,141.608,853.175,143.925z"/>
	<path fill="#FFFFFF" d="M130.418,35.006c8.655,2.537,17.062,5.002,25.531,7.485c0,12.514,0,24.881,0,37.581
		c-8.639-2.844-17.074-5.622-25.531-8.406C130.418,59.474,130.418,47.432,130.418,35.006z"/>
	<path fill="#FFFFFF" d="M220.345,80.071c-8.695-2.867-17.035-5.616-25.453-8.391c0-12.162,0-24.259,0-36.652
		c8.54,2.498,16.938,4.955,25.453,7.445C220.345,54.955,220.345,67.366,220.345,80.071z"/>
	<path fill="#FFFFFF" d="M65.96,178.288c0-12.082,0-24.05,0-36.013c1.565-0.15,19.521,4.864,25.547,7.122
		c0,12.332,0,24.703,0,37.076C89.963,186.473,69.747,179.996,65.96,178.288z"/>
	<path fill="#FFFFFF" d="M155.964,125.005c-8.567,2.841-16.945,5.618-25.505,8.456c0-12.633,0-25.001,0-37.583
		c8.42-2.468,16.88-4.948,25.505-7.477C155.964,100.702,155.964,112.731,155.964,125.005z"/>
	<path fill="#FFFFFF" d="M91.524,125.006c-8.566,2.842-16.949,5.62-25.512,8.459c0-12.646,0-25.019,0-37.585
		c8.437-2.473,16.909-4.955,25.512-7.476C91.524,100.691,91.524,112.735,91.524,125.006z"/>
	<path fill="#FFFFFF" d="M227.089,42.479c8.508-2.491,16.913-4.952,25.474-7.458c0,12.293,0,24.324,0,36.586
		c-8.417,2.793-16.84,5.589-25.474,8.454C227.089,67.442,227.089,55.09,227.089,42.479z"/>
	<path fill="#FFFFFF" d="M162.657,42.486c8.403-2.465,16.812-4.932,25.417-7.455c0,12.323,0,24.411,0,36.599
		c-8.442,2.798-16.823,5.577-25.417,8.426C162.657,67.419,162.657,55.055,162.657,42.486z"/>
	<path fill="#FFFFFF" d="M59.2,133.455c-8.572-2.829-16.897-5.575-25.327-8.355c0-12.171,0-24.259,0-36.652
		c8.479,2.479,16.86,4.932,25.327,7.409C59.2,108.338,59.2,120.708,59.2,133.455z"/>
	<path fill="#FFFFFF" d="M98.259,88.421c8.583,2.516,16.987,4.979,25.409,7.446c0,12.542,0,24.925,0,37.597
		c-8.569-2.829-16.952-5.595-25.409-8.386C98.259,112.855,98.259,100.763,98.259,88.421z"/>
	<path fill="#FFFFFF" d="M123.605,178.459c-8.48,2.807-16.808,5.562-25.337,8.383c0-12.65,0-25.021,0-37.569
		c8.428-2.465,16.826-4.922,25.337-7.412C123.605,154.251,123.605,166.346,123.605,178.459z"/>
	<path fill="#FFFFFF" d="M840.621,147.067c-12.28,0-24.45,0-36.768,0c-0.041,0.678-0.134,1.208-0.097,1.729
		c0.328,4.528,1.724,8.644,4.592,12.241c5.812,7.288,20.251,7.104,24.904-3.312c0.562-1.26,1.021-2.566,1.563-3.947
		c1.815,0,3.664,0,5.669,0c-0.118,0.643-0.178,1.181-0.315,1.697c-2.713,10.1-9.357,15.374-19.866,15.536
		c-2.464,0.038-5.007-0.246-7.392-0.858c-6.203-1.593-10.449-5.64-12.758-11.522c-3.376-8.604-3.478-17.354,0.03-25.932
		c4.485-10.968,16.684-15.837,27.648-11.262c2.463,1.026,4.583,2.543,6.43,4.477C839.334,131.219,841.381,140.91,840.621,147.067z
		 M834.854,141.988c-0.186-4.395-1.41-8.211-3.974-11.572c-5.45-7.149-16.189-7.253-21.914-0.928
		c-2.435,2.69-3.924,5.85-4.745,9.347c-0.23,0.988-0.35,2.003-0.544,3.153C814.139,141.988,824.37,141.988,834.854,141.988z"/>
	<path fill="#FFFFFF" d="M634.486,147.068c0.163,1.515,0.24,2.802,0.446,4.069c0.554,3.399,1.802,6.511,3.844,9.318
		c5.857,8.05,20.549,7.663,25.236-2.447c0.638-1.371,1.153-2.8,1.735-4.224c1.891,0,3.735,0,5.593,0
		c-1.28,9.539-8.089,16.105-17.491,17.064c-3.064,0.312-6.084,0.236-9.087-0.436c-5.763-1.29-9.979-4.602-12.772-9.773
		c-1.771-3.28-2.721-6.815-3.106-10.495c-0.592-5.647-0.226-11.201,1.818-16.574c5.149-13.541,17.762-15.428,26.954-12.52
		c4.263,1.35,7.48,4.137,9.825,7.924c3.284,5.31,4.302,11.184,4.226,17.316c-0.002,0.192-0.131,0.381-0.275,0.775
		C659.248,147.068,647.015,147.068,634.486,147.068z M665.753,141.974c-0.218-4.927-1.671-9.204-4.998-12.721
		c-4.883-5.158-13.055-5.897-18.743-1.645c-4.735,3.541-6.66,8.593-7.449,14.365C645.021,141.974,655.295,141.974,665.753,141.974z"
		/>
	<path fill="#FFFFFF" d="M179.293,174.281c0.732-2.698,1.47-5.394,2.194-8.095c0.86-3.208,1.691-6.424,2.567-9.627
		c0.504-1.847,0.802-2.035,2.791-2.054c2.25-0.021,2.504,0.104,3.048,1.979c1.525,5.25,3.01,10.512,4.515,15.769
		c0.222,0.776,0.466,1.547,1.052,2.325c0.202-0.605,0.424-1.206,0.601-1.818c1.516-5.253,3.02-10.508,4.537-15.76
		c0.668-2.313,2.234-3.141,4.576-2.425c0.757,0.231,1.168,0.726,1.017,1.552c-0.086,0.477-0.21,0.946-0.339,1.414
		c-2.427,8.807-4.857,17.613-7.289,26.417c-0.147,0.533-0.217,1.126-0.506,1.571c-0.275,0.423-0.76,0.916-1.21,0.979
		c-1.018,0.145-2.079,0.127-3.106,0.017c-1.096-0.118-1.304-1.094-1.554-1.969c-1.201-4.191-2.403-8.384-3.611-12.57
		c-0.492-1.704-1.002-3.402-1.874-5.109c-0.207,0.674-0.436,1.342-0.617,2.022c-1.354,5.082-2.691,10.169-4.049,15.25
		c-0.635,2.374-0.728,2.433-3.087,2.443c-2.65,0.015-2.703-0.015-3.436-2.567c-2.558-8.913-5.107-17.83-7.658-26.745
		c-0.114-0.399-0.305-0.805-0.297-1.204c0.008-0.374,0.122-0.916,0.383-1.085c1.385-0.898,2.946-0.506,4.427-0.354
		c1.028,0.104,1.35,1.063,1.596,1.964c1.405,5.14,2.814,10.279,4.229,15.417c0.212,0.771,0.462,1.529,0.694,2.295
		C179.023,174.301,179.158,174.292,179.293,174.281z"/>
	<path fill="#FFFFFF" d="M243.022,182.022c-0.335,0.919-0.545,1.558-0.799,2.179c-0.483,1.181-1.252,1.631-2.421,1.458
		c-1.092-0.162-1.543-0.715-1.63-2.031c-0.027-0.414-0.007-0.832-0.007-1.248c0-11.646,0-23.292,0-34.938
		c0-0.416-0.012-0.833,0.011-1.247c0.015-0.273,0.015-0.582,0.141-0.808c0.981-1.765,2.681-1.077,4.11-1.077
		c1.21,0,1.718,0.608,1.754,1.875c0.065,2.216,0.025,4.436,0.027,6.653c0.001,1.382,0,2.763,0,4.364
		c0.396-0.186,0.668-0.229,0.801-0.389c3.563-4.28,12.411-3.911,16.24,2.106c1.057,1.66,1.822,3.596,2.312,5.51
		c1.313,5.132,0.892,10.201-1.414,14.999c-2.266,4.715-6.042,7.059-11.36,6.772c-2.393-0.127-4.419-1.053-6.191-2.604
		C244.132,183.19,243.719,182.723,243.022,182.022z M257.982,170.438c-0.23-3.114-0.466-6.232-2.225-8.954
		c-1.986-3.074-5.401-3.6-8.204-1.266c-1.95,1.625-3.106,3.756-3.252,6.271c-0.144,2.48-0.153,4.988,0.057,7.46
		c0.119,1.403,0.595,2.868,1.27,4.11c1.207,2.223,3.282,3.432,5.802,3.373c2.437-0.058,4.033-1.572,5.062-3.732
		C257.59,175.399,257.818,172.93,257.982,170.438z"/>
	<path fill="#FFFFFF" d="M766.448,121.332c3.235,0,6.255,0,9.384,0c0,1.699,0,3.188,0,4.894c-3.081,0-6.098,0-9.33,0
		c-0.235,2.59-0.086,4.993-0.112,7.387c-0.025,2.355-0.006,4.713-0.006,7.07c0,2.426,0,4.852,0,7.277c0,2.357,0,4.713,0,7.07
		c0,2.426,0,4.852,0,7.278c0,2.34,0,4.68,0,7.147c-1.973,0-3.745,0-5.778,0c-0.169-7.147-0.054-14.325-0.074-21.499
		c-0.021-7.125-0.004-14.25-0.004-21.601c-2.784,0-5.383,0-8.131,0c0-1.712,0-3.202,0-4.994c2.598,0,5.25,0,8.131,0
		c0-2.006-0.095-3.728,0.023-5.432c0.139-1.993,0.276-4.02,0.744-5.951c0.942-3.892,3.573-6.175,7.481-6.884
		c2.671-0.484,5.366-0.301,8.215,0.028c0,1.641,0,3.182,0,4.912c-1.189-0.068-2.338-0.161-3.488-0.196
		c-5.012-0.152-6.821,1.488-7.039,6.506C766.369,116.549,766.448,118.76,766.448,121.332z"/>
	<path fill="#FFFFFF" d="M518.852,226.538c-0.91,0-1.655,0-2.376,0c-0.517-1.596-0.767-166.326-0.265-172.333
		c0.808-0.039,1.651-0.079,2.641-0.126C518.852,111.623,518.852,168.965,518.852,226.538z"/>
	<path fill="#FFFFFF" d="M716.502,126.281c-2.938,0-5.493,0-8.218,0c0-1.649,0-3.188,0-4.911c2.65,0,5.259,0,8.164,0
		c0-4.899,0-9.629,0-14.472c2.062,0,3.829,0,5.83,0c0,4.718,0,9.391,0,14.304c3.354,0.231,6.515-0.016,9.803,0.163
		c0,1.594,0,3.08,0,4.837c-3.096,0.216-6.259-0.016-9.538,0.138c-0.067,0.612-0.177,1.141-0.177,1.667
		c-0.011,10.188-0.017,20.376,0.006,30.564c0.002,1.034,0.104,2.08,0.284,3.098c0.363,2.064,1.296,3.031,3.397,3.354
		c1.218,0.186,2.479,0.108,3.72,0.11c0.738,0,1.479-0.076,2.345-0.127c0,1.685,0,3.18,0,4.826c-3.441,0.459-6.851,0.679-10.25-0.218
		c-2.771-0.731-4.37-2.602-4.919-5.337c-0.283-1.416-0.424-2.883-0.43-4.329c-0.034-10.396-0.019-20.792-0.019-31.188
		C716.502,128.018,716.502,127.275,716.502,126.281z"/>
	<path fill="#FFFFFF" d="M424.163,171.422c-0.135,2.535,0.253,4.618,1.349,6.516c2.77,4.79,9.207,4.938,12.203,0.31
		c0.188-0.29,0.358-0.594,0.508-0.904c0.493-1.022,1.317-1.362,2.396-1.176c0.544,0.097,1.09,0.194,1.627,0.324
		c1.957,0.469,2.257,1.073,1.354,2.929c-2.169,4.462-5.874,6.721-10.705,7.1c-7.581,0.594-12.946-3.372-14.742-10.795
		c-1.071-4.433-0.837-8.81,0.953-13.026c3.224-7.594,10.389-9.627,16.743-7.772c2.714,0.792,4.781,2.46,6.29,4.816
		c1.885,2.941,2.641,6.219,2.691,9.671c0.021,1.426-0.396,1.842-1.803,1.984c-0.551,0.055-1.107,0.024-1.661,0.024
		c-4.917,0.001-9.834,0-14.751,0C425.866,171.422,425.116,171.422,424.163,171.422z M438.226,166.84
		c0.073-4.658-2.854-8.046-6.747-7.944c-3.744,0.098-7.062,3.92-6.859,7.944C429.155,166.84,433.692,166.84,438.226,166.84z"/>
	<path fill="#FFFFFF" d="M307.719,171.423c-0.097,2.251,0.193,4.071,0.991,5.79c1.247,2.685,3.397,4.179,6.317,4.379
		c2.824,0.193,4.894-1.18,6.371-3.53c0.464-0.74,0.697-1.88,1.76-1.848c1.288,0.04,2.589,0.321,3.83,0.684
		c0.31,0.092,0.573,0.897,0.564,1.371c-0.009,0.518-0.311,1.054-0.569,1.537c-2.248,4.211-5.87,6.355-10.534,6.717
		c-8.026,0.619-13.84-4.111-15.055-12.222c-0.594-3.966-0.346-7.881,1.268-11.616c3.289-7.611,10.425-9.604,16.759-7.755
		c2.787,0.812,4.891,2.543,6.396,4.992c1.787,2.907,2.539,6.114,2.563,9.498c0.01,1.433-0.394,1.84-1.806,1.979
		c-0.549,0.055-1.107,0.022-1.661,0.022c-4.917,0.001-9.833,0-14.749,0.001C309.415,171.423,308.666,171.423,307.719,171.423z
		 M321.832,166.831c-0.029-4.621-2.743-7.849-6.548-7.934c-3.748-0.083-7.094,3.578-7.17,7.934
		C312.688,166.831,317.26,166.831,321.832,166.831z"/>
	<path fill="#FFFFFF" d="M213.62,171.393c-0.193,2.49,0.233,4.504,1.244,6.358c2.692,4.945,9.256,5.17,12.316,0.457
		c0.511-0.787,0.725-2.016,1.877-2.018c1.222-0.003,2.487,0.205,3.653,0.574c0.985,0.312,0.955,1.219,0.585,2.091
		c-0.771,1.816-1.898,3.368-3.382,4.669c-5.185,4.543-17.188,5-21.344-4.902c-2.37-5.647-2.246-11.36,0.434-16.9
		c3.471-7.173,11.063-8.784,17.083-6.553c2.788,1.033,4.756,3.035,6.13,5.637c1.317,2.493,1.897,5.191,2.062,7.979
		c0.128,2.156-0.252,2.551-2.464,2.566c-5.333,0.037-10.666,0.029-15.999,0.041C215.136,171.395,214.457,171.393,213.62,171.393z
		 M214.049,166.84c4.607,0,9.072,0,13.524,0c0.428-4.213-2.52-7.864-6.351-7.999C217.496,158.71,214.013,162.513,214.049,166.84z"/>
	<path fill="#FFFFFF" d="M286.707,186.567c-3.772-0.008-6.341-0.474-8.741-1.673c-2.38-1.19-4.156-2.975-5.123-5.481
		c-0.62-1.61-0.235-2.332,1.403-2.746c0.536-0.135,1.082-0.229,1.627-0.325c1.441-0.251,2.017-0.14,2.469,1.202
		c1.201,3.559,7.85,5.407,11.796,3.092c1.303-0.766,1.965-1.953,1.908-3.454c-0.056-1.458-0.867-2.545-2.205-2.992
		c-1.696-0.568-3.467-0.912-5.208-1.342c-1.81-0.446-3.682-0.719-5.421-1.354c-3.89-1.424-5.763-4.157-5.746-7.995
		c0.017-3.91,2.021-6.791,5.863-8.183c3.847-1.395,7.742-1.356,11.586,0.042c2.601,0.945,4.458,2.738,5.512,5.312
		c0.573,1.4,0.254,2.073-1.155,2.499c-0.528,0.16-1.087,0.213-1.618,0.366c-1.245,0.357-2.147,0.02-2.744-1.175
		c-1.378-2.757-5.492-4.148-8.927-2.688c-1.198,0.51-2.124,1.298-2.329,2.693c-0.275,1.873,0.474,3.246,2.413,3.798
		c1.988,0.566,4.06,0.832,6.081,1.292c1.547,0.354,3.127,0.658,4.595,1.234c3.432,1.346,5.244,4.021,5.46,7.645
		c0.205,3.419-1.062,6.241-4.059,8.108C291.533,186.069,288.625,186.561,286.707,186.567z"/>
	<path fill="#FFFFFF" d="M460.52,186.573c-3.23-0.025-5.876-0.486-8.314-1.775c-2.346-1.24-4.103-3.045-4.992-5.598
		c-0.495-1.422-0.171-2.066,1.254-2.475c0.529-0.152,1.084-0.222,1.627-0.326c1.727-0.336,2.01-0.242,2.767,1.322
		c0.702,1.454,1.81,2.434,3.257,3.048c2.521,1.069,5.096,1.243,7.684,0.251c1.218-0.467,2.129-1.289,2.525-2.578
		c0.549-1.787-0.146-3.516-2.029-4.229c-1.729-0.654-3.6-0.937-5.404-1.396c-1.873-0.478-3.819-0.773-5.597-1.49
		c-4.413-1.784-6.191-5.429-5.13-10.064c0.525-2.294,1.834-4.083,3.898-5.129c4.954-2.508,9.985-2.511,14.938,0.04
		c1.776,0.916,2.984,2.454,3.776,4.287c0.696,1.613,0.357,2.315-1.289,2.761c-0.4,0.107-0.812,0.173-1.219,0.259
		c-1.743,0.369-1.961,0.285-2.933-1.137c-2.041-2.981-5.699-4.078-8.947-2.68c-1.699,0.732-2.571,2.106-2.352,3.742
		c0.213,1.567,1.184,2.486,2.657,2.83c1.952,0.455,3.933,0.783,5.889,1.221c1.481,0.332,2.988,0.628,4.405,1.152
		c3.46,1.279,5.344,3.892,5.634,7.518c0.296,3.695-1.138,6.638-4.405,8.533C465.691,186.124,462.903,186.561,460.52,186.573z"/>
	<path fill="#FFFFFF" d="M685.707,121.301c0,3.662,0,7.089,0,10.515c0.136,0.062,0.271,0.127,0.405,0.189
		c1.629-3.518,3.808-6.556,7.104-8.628c3.319-2.086,6.93-2.896,10.938-2.707c0,1.972,0,3.743,0,5.747
		c-0.747,0.062-1.479,0.134-2.21,0.177c-8.129,0.477-14.484,6.42-15.444,14.5c-0.18,1.51-0.26,3.039-0.266,4.56
		c-0.027,7.136-0.013,14.271-0.013,21.408c0,0.749,0,1.498,0,2.386c-1.999,0-3.819,0-5.76,0c0-16,0-31.904,0-48.056
		c0.825-0.031,1.626-0.072,2.427-0.086C683.717,121.29,684.543,121.301,685.707,121.301z"/>
	<path fill="#FFFFFF" d="M396.44,170.519c0.056,2.943,0.387,5.833,2.04,8.363c2.33,3.569,6.986,3.552,9.332-0.013
		c0.413-0.629,0.723-1.341,0.989-2.049c0.92-2.436,2.467-3.202,4.959-2.449c0.984,0.298,1.246,0.938,1.145,1.901
		c-0.564,5.346-5.508,9.992-10.94,10.25c-5.799,0.276-10.105-2.369-12.204-7.776c-2.141-5.516-2.154-11.124,0.105-16.616
		c2.459-5.979,7.531-8.663,13.893-7.549c4.628,0.811,8.709,5.233,9.114,9.878c0.116,1.325-0.366,1.942-1.696,2.073
		c-0.617,0.06-1.246,0.006-1.869,0.007c-1.122,0.001-1.812-0.554-2.118-1.622c-0.172-0.597-0.31-1.212-0.554-1.779
		c-0.946-2.207-2.561-3.638-5.013-3.803c-2.371-0.159-4.109,1.022-5.332,2.983c-1.047,1.678-1.516,3.558-1.721,5.502
		C396.475,168.715,396.48,169.62,396.44,170.519z"/>
	<path fill="#FFFFFF" d="M365.119,176.754c0.641-1.957,1.29-3.912,1.92-5.873c1.546-4.807,3.076-9.618,4.628-14.424
		c0.699-2.165,3.337-3.214,5.319-2.124c0.597,0.329,0.933,0.819,0.69,1.547c-0.11,0.328-0.208,0.66-0.316,0.989
		c-3.005,9.062-6.008,18.123-9.02,27.183c-0.791,2.378-0.897,2.462-3.386,2.445c-2.991-0.019-3.347,0.643-4.659-3.315
		c-2.872-8.668-5.878-17.291-8.828-25.934c-0.134-0.393-0.285-0.781-0.388-1.183c-0.286-1.117,0.074-1.792,1.199-1.895
		c1.235-0.111,2.495-0.094,3.734,0c1.147,0.087,1.539,1.021,1.85,1.982c0.831,2.567,1.677,5.128,2.522,7.689
		c1.427,4.324,2.857,8.647,4.285,12.973C364.819,176.795,364.969,176.776,365.119,176.754z"/>
	<path fill="#FFFFFF" d="M117.879,138.11c-2.045,0.543-4.089,1.093-6.137,1.629c-5.22,1.367-10.437,2.744-15.666,4.074
		c-0.709,0.18-1.531,0.31-2.216,0.133c-7.166-1.851-14.315-3.769-21.467-5.673c-0.18-0.048-0.337-0.178-0.779-0.42
		c0.66-0.275,1.114-0.508,1.593-0.657c6.672-2.073,13.342-4.156,20.032-6.169c0.812-0.245,1.81-0.338,2.602-0.103
		c7.161,2.131,14.295,4.35,21.436,6.544c0.193,0.061,0.374,0.158,0.56,0.239C117.851,137.842,117.865,137.976,117.879,138.11z"/>
	<path fill="#FFFFFF" d="M136.232,30.858c2.694-0.836,5.388-1.674,8.083-2.508c4.427-1.369,8.862-2.719,13.279-4.119
		c0.96-0.306,1.842-0.399,2.829-0.094c7.004,2.169,14.021,4.297,21.031,6.444c0.312,0.095,0.603,0.255,1.306,0.561
		c-1.27,0.36-2.144,0.625-3.026,0.857c-6.354,1.676-12.704,3.366-19.07,4.993c-0.838,0.214-1.817,0.305-2.638,0.093
		c-7.032-1.815-14.042-3.715-21.059-5.591c-0.262-0.07-0.519-0.162-0.778-0.243C136.204,31.121,136.218,30.99,136.232,30.858z"/>
	<path fill="#FFFFFF" d="M86.034,84.492c-0.676,0.242-1.114,0.438-1.57,0.557c-6.817,1.8-13.64,3.575-20.451,5.397
		c-1.043,0.279-2.015,0.248-3.038-0.025c-6.812-1.819-13.629-3.614-20.443-5.426c-0.327-0.087-0.635-0.245-1.232-0.479
		c0.679-0.288,1.118-0.521,1.584-0.665c6.666-2.078,13.335-4.143,20.002-6.216c0.929-0.288,1.791-0.448,2.812-0.13
		c6.993,2.188,14.013,4.289,21.021,6.428C85.094,84.048,85.447,84.24,86.034,84.492z"/>
	<path fill="#FFFFFF" d="M200.624,30.965c0.56-0.214,1.109-0.461,1.68-0.638c6.544-2.022,13.084-4.06,19.646-6.021
		c0.878-0.264,1.95-0.396,2.801-0.146c7.034,2.073,14.038,4.248,21.048,6.402c0.367,0.112,0.705,0.322,1.402,0.649
		c-4.372,1.145-8.372,2.188-12.371,3.236c-3.212,0.843-6.414,1.725-9.639,2.514c-0.846,0.207-1.82,0.358-2.636,0.147
		c-7.3-1.879-14.577-3.846-21.861-5.787C200.671,31.205,200.647,31.085,200.624,30.965z"/>
	<path fill="#FFFFFF" d="M103.746,84.489c0.623-0.264,1.034-0.48,1.47-0.616c6.805-2.109,13.616-4.2,20.417-6.322
		c0.82-0.256,1.553-0.322,2.409-0.058c7.004,2.169,14.024,4.283,21.037,6.423c0.38,0.116,0.732,0.324,1.346,0.602
		c-0.757,0.25-1.263,0.445-1.784,0.584c-6.687,1.771-13.375,3.529-20.062,5.3c-1.013,0.269-1.982,0.351-3.041,0.062
		c-6.809-1.847-13.634-3.631-20.452-5.445C104.697,84.916,104.331,84.723,103.746,84.489z"/>
	<path fill="#FFFFFF" d="M788.533,169.496c-1.868,0-3.649,0-5.572,0c0-16.022,0-31.974,0-48.195c0.938,0,1.812,0,2.686,0
		c0.896,0,1.79,0,2.645,0C788.817,122.847,789.021,165.227,788.533,169.496z"/>
	<path fill="#FFFFFF" d="M745.475,169.493c-1.891,0-3.662,0-5.572,0c0-16.026,0-31.97,0-48.053c1.824,0,3.592,0,5.362,0
		C745.723,122.917,745.928,164.554,745.475,169.493z"/>
	<path fill="#FFFFFF" d="M337.965,159.029c0.744-0.858,1.177-1.39,1.644-1.891c1.166-1.251,2.598-2.042,4.269-2.404
		c3.484-0.755,4.851,0.655,4.074,4.158c-0.204,0.918-0.835,1.18-1.624,1.338c-5.14,1.034-7.854,4.178-7.971,9.472
		c-0.1,4.496-0.03,8.995-0.036,13.492c-0.003,3.127-0.275,3.388-3.46,3.319c-0.346-0.008-0.697,0.013-1.036-0.045
		c-0.846-0.141-1.374-0.619-1.432-1.512c-0.032-0.482-0.035-0.969-0.035-1.453c-0.001-8.371,0-16.744,0.001-25.115
		c0-0.415-0.017-0.833,0.027-1.244c0.036-0.337,0.052-0.749,0.248-0.985c1.078-1.297,2.561-0.721,3.878-0.677
		c0.948,0.032,1.393,0.78,1.377,1.751C337.882,157.708,337.927,158.183,337.965,159.029z"/>
	<path fill="#FFFFFF" d="M386.576,170.347c0,4.633,0.008,9.267-0.003,13.898c-0.006,2.156-0.388,2.535-2.506,2.605
		c-3.535,0.119-3.796-0.127-3.795-3.595c0.002-8.781,0.004-17.563,0.012-26.346c0.002-2.786,0.251-3.02,3.113-3.021
		c0.208,0,0.416-0.005,0.623,0.002c2.154,0.064,2.546,0.436,2.552,2.556C386.585,161.081,386.575,165.714,386.576,170.347z"/>
	<path fill="#FFFFFF" d="M782.954,102.902c1.92,0,3.738,0,5.661,0c0,3.092,0,6.038,0,9.104c-1.875,0.425-3.7,0.197-5.661,0.156
		C782.954,109.037,782.954,106.035,782.954,102.902z"/>
	<path fill="#FFFFFF" d="M739.891,102.892c1.907,0,3.738,0,5.649,0c0,3.094,0,6.051,0,9.126c-1.878,0.378-3.697,0.242-5.649,0.089
		C739.891,109.017,739.891,106.013,739.891,102.892z"/>
	<path fill="#FFFFFF" d="M387.112,146.389c0.044,2.057-1.518,3.735-3.562,3.827c-2.053,0.094-3.938-1.695-3.935-3.734
		c0.003-1.993,1.691-3.652,3.738-3.672C385.485,142.788,387.066,144.293,387.112,146.389z"/>
</g>
</svg>
