<?xml version="1.0" encoding="utf-8"?>
<!-- Generator: Adobe Illustrator 16.0.4, SVG Export Plug-In . SVG Version: 6.00 Build 0)  -->
<!DOCTYPE svg PUBLIC "-//W3C//DTD SVG 1.1//EN" "http://www.w3.org/Graphics/SVG/1.1/DTD/svg11.dtd">
<svg version="1.1" id="Layer_1" xmlns="http://www.w3.org/2000/svg" xmlns:xlink="http://www.w3.org/1999/xlink" x="0px" y="0px"
	 width="500px" height="270.643px" viewBox="70.588 38.208 500 270.643" enable-background="new 70.588 38.208 500 270.643"
	 xml:space="preserve">
<g>
	<g>
		<g>
			<g>
				<g>
					<path fill="#F6EC13" d="M274.566,178.82c-5.252,0-10.178-1.087-14.787-3.266c-1.411,0.769-2.754,1.699-4.033,2.785
						c-1.281,1.089-1.919,2.659-1.919,4.706c0,2.947,1.47,4.993,4.416,6.145c2.944,1.15,6.624,2.051,11.042,2.688
						c4.416,0.645,9.218,1.218,14.401,1.729c5.186,0.512,9.986,1.569,14.402,3.167c4.418,1.604,8.097,4,11.044,7.204
						c2.941,3.197,4.416,7.679,4.416,13.44c0,4.479-0.93,8.417-2.785,11.812c-1.856,3.391-4.449,6.24-7.777,8.544
						c-3.331,2.306-7.297,4.032-11.906,5.185c-4.607,1.153-9.667,1.728-15.17,1.728c-5.636,0-10.821-0.575-15.555-1.728
						c-4.738-1.151-8.833-2.851-12.29-5.087c-3.456-2.242-6.178-4.931-8.161-8.067c-1.986-3.139-2.977-6.69-2.977-10.658
						c0-2.815,0.447-5.313,1.344-7.488c0.896-2.179,2.112-4.13,3.649-5.857c1.536-1.728,3.294-3.233,5.28-4.51
						c1.983-1.28,3.999-2.306,6.05-3.075c-3.073-1.023-5.603-2.525-7.587-4.512c-1.986-1.983-2.976-4.898-2.976-8.738
						c0-3.583,0.864-6.399,2.594-8.45c1.728-2.046,4.062-3.84,7.008-5.376c-3.331-2.815-5.922-6.305-7.776-10.466
						c-1.858-4.157-2.786-8.735-2.786-13.729v-7.299c0-4.607,0.77-8.832,2.305-12.673c1.536-3.84,3.743-7.169,6.625-9.987
						c2.88-2.813,6.368-4.99,10.465-6.529c4.097-1.535,8.642-2.302,13.635-2.302c4.48,0,8.642,0.705,12.482,2.11
						c3.84,1.411,7.168,3.397,9.985,5.954c1.92-3.84,4.129-6.816,6.626-8.93c2.495-2.11,4.83-3.167,7.006-3.167
						c1.921,0,3.36,0.548,4.323,1.633c0.959,1.089,1.44,2.208,1.44,3.359c0,1.152-0.321,2.084-0.96,2.787
						c-0.643,0.705-1.411,1.184-2.304,1.439c-1.536,0.257-3.265,0.959-5.185,2.111c-1.92,1.153-3.777,3.201-5.568,6.147
						c1.791,2.433,3.136,5.218,4.033,8.352c0.893,3.139,1.344,6.371,1.344,9.697v7.299c0,4.607-0.833,8.832-2.497,12.671
						c-1.666,3.842-3.969,7.202-6.912,10.084c-2.948,2.879-6.467,5.123-10.562,6.721C283.909,178.022,279.429,178.82,274.566,178.82
						z M301.449,217.803c0-3.971-1.281-7.009-3.84-9.122c-2.563-2.112-5.664-3.681-9.314-4.703
						c-3.648-1.029-7.489-1.699-11.521-2.018c-4.033-0.322-7.584-0.671-10.658-1.057c-4.482,1.409-8.449,3.457-11.906,6.145
						c-3.455,2.688-5.185,6.339-5.185,10.945c0,5.248,2.368,9.472,7.106,12.675c4.733,3.2,11.263,4.801,19.586,4.801
						c8.065,0,14.369-1.601,18.916-4.801C299.176,227.465,301.449,223.178,301.449,217.803z M295.688,139.644
						c0-6.271-1.823-11.521-5.473-15.744c-3.648-4.228-8.802-6.338-15.458-6.338c-6.659,0-11.811,2.111-15.458,6.338
						c-3.65,4.223-5.473,9.474-5.473,15.744v7.105c0,6.529,1.853,11.938,5.568,16.228c3.711,4.291,8.896,6.433,15.554,6.433
						c6.53,0,11.618-2.113,15.266-6.338c3.649-4.223,5.473-9.6,5.473-16.128V139.644z"/>
					<path fill="#F6EC13" d="M331.984,195.143c0,1.281-0.61,2.433-1.825,3.456c-1.218,1.027-2.72,1.537-4.512,1.537
						c-1.795,0-3.266-0.51-4.418-1.537c-1.153-1.023-1.728-2.175-1.728-3.456V58.223c0-1.407,0.575-2.526,1.728-3.359
						c1.152-0.833,2.623-1.248,4.418-1.248c1.792,0,3.294,0.417,4.512,1.248c1.215,0.833,1.825,1.953,1.825,3.359v64.524
						c2.045-3.712,5.184-7.074,9.409-10.082c4.224-3.008,9.537-4.512,15.938-4.512c4.608,0,8.958,0.93,13.058,2.785
						c4.096,1.856,7.712,4.415,10.851,7.682c3.136,3.264,5.599,7.072,7.392,11.424c1.792,4.354,2.688,9.024,2.688,14.018v51.081
						c0,1.664-0.643,2.913-1.919,3.745c-1.28,0.832-2.754,1.248-4.417,1.248c-1.412,0-2.785-0.416-4.129-1.248
						c-1.343-0.832-2.018-2.08-2.018-3.745v-51.081c0-3.075-0.642-6.079-1.919-9.025c-1.282-2.946-2.978-5.535-5.09-7.778
						c-2.112-2.237-4.641-4.062-7.585-5.473c-2.945-1.405-6.019-2.113-9.218-2.113c-2.816,0-5.6,0.547-8.353,1.635
						c-2.754,1.087-5.217,2.688-7.394,4.799c-2.18,2.114-3.937,4.675-5.282,7.683c-1.343,3.008-2.016,6.433-2.016,10.273v51.081
						H331.984z"/>
					<path fill="#F6EC13" d="M432.03,108.153c4.863,0,9.506,0.93,13.922,2.785c4.417,1.856,8.321,4.415,11.714,7.682
						c3.391,3.264,6.078,7.072,8.066,11.424c1.983,4.354,2.977,9.024,2.977,14.018v20.931c0,4.74-0.993,9.313-2.977,13.73
						c-1.988,4.418-4.676,8.291-8.066,11.616c-3.394,3.332-7.297,6.021-11.714,8.066c-4.416,2.046-9.059,3.075-13.922,3.075
						c-4.867,0-9.477-0.995-13.826-2.977c-4.354-1.983-8.194-4.674-11.522-8.068c-3.332-3.391-5.986-7.263-7.968-11.616
						c-1.988-4.352-2.979-8.959-2.979-13.827v-20.931c0-4.734,0.961-9.283,2.881-13.635c1.921-4.35,4.513-8.189,7.779-11.52
						c3.263-3.33,7.104-5.956,11.521-7.875C422.333,109.111,427.037,108.153,432.03,108.153z M456.225,144.061
						c0-3.075-0.641-6.079-1.917-9.025c-1.285-2.946-3.012-5.535-5.185-7.778c-2.182-2.237-4.741-4.062-7.685-5.473
						c-2.947-1.405-6.081-2.113-9.409-2.113c-3.33,0-6.466,0.708-9.41,2.113c-2.945,1.413-5.472,3.236-7.584,5.473
						c-2.111,2.243-3.777,4.833-4.991,7.778c-1.221,2.946-1.827,5.95-1.827,9.025v20.931c0,3.204,0.606,6.309,1.827,9.313
						c1.214,3.01,2.911,5.665,5.087,7.97c2.177,2.306,4.707,4.161,7.585,5.57c2.88,1.41,5.984,2.11,9.313,2.11
						c3.328,0,6.464-0.7,9.409-2.11c2.943-1.41,5.503-3.265,7.685-5.57c2.173-2.305,3.899-4.96,5.185-7.97
						c1.276-3.004,1.917-6.109,1.917-9.313V144.061L456.225,144.061z"/>
					<path fill="#F6EC13" d="M497.895,190.918c7.297,0,12.414-1.345,15.363-4.032c2.942-2.689,4.415-5.888,4.415-9.603
						c0-4.226-1.185-7.491-3.553-9.794c-2.369-2.304-5.28-4.158-8.738-5.569c-3.455-1.406-7.266-2.654-11.424-3.745
						c-4.162-1.085-7.97-2.526-11.428-4.319c-3.456-1.792-6.37-4.16-8.738-7.106c-2.369-2.944-3.551-7.105-3.551-12.483
						c0-3.072,0.543-6.144,1.632-9.216c1.086-3.072,2.849-5.857,5.282-8.354c2.43-2.497,5.568-4.543,9.407-6.144
						c3.843-1.6,8.515-2.399,14.018-2.399c3.199,0,6.338,0.287,9.41,0.86c3.074,0.579,5.825,1.283,8.259,2.114
						c2.429,0.834,4.381,1.822,5.854,2.976c1.473,1.152,2.21,2.305,2.21,3.457c0,1.025-0.481,2.37-1.44,4.034
						c-0.961,1.665-2.209,2.496-3.746,2.496c-0.769,0-1.728-0.287-2.878-0.865c-1.154-0.575-2.566-1.181-4.228-1.823
						c-1.664-0.641-3.585-1.248-5.76-1.826c-2.18-0.577-4.674-0.864-7.49-0.864c-3.585,0-6.595,0.479-9.024,1.443
						c-2.432,0.957-4.417,2.176-5.952,3.647c-1.536,1.471-2.626,3.105-3.266,4.895c-0.642,1.794-0.959,3.457-0.959,4.994
						c0,3.715,1.18,6.529,3.553,8.449c2.367,1.92,5.312,3.491,8.833,4.706c3.52,1.218,7.326,2.37,11.424,3.455
						c4.098,1.089,7.905,2.626,11.429,4.609c3.517,1.987,6.464,4.675,8.832,8.066c2.366,3.392,3.555,7.969,3.555,13.729
						c0,7.685-2.69,13.73-8.066,18.147c-5.376,4.418-12.995,6.627-22.851,6.627c-4.486,0-8.58-0.451-12.292-1.345
						c-3.714-0.895-6.883-2.018-9.506-3.362c-2.625-1.343-4.674-2.846-6.145-4.511c-1.473-1.664-2.207-3.2-2.207-4.612
						c0-1.276,0.412-2.559,1.246-3.837c0.83-1.279,1.887-1.921,3.168-1.921c1.023,0,2.113,0.479,3.266,1.439
						c1.151,0.961,2.655,1.985,4.513,3.071c1.854,1.091,4.158,2.113,6.912,3.074S493.541,190.918,497.895,190.918z"/>
					<path fill="#F6EC13" d="M544.556,171.907c0,6.272,1.312,10.657,3.939,13.153c2.619,2.495,5.602,3.717,12.26,3.717l0.27,0.027
						c1.791,0,3.199,0.578,4.226,1.73c1.022,1.15,1.535,2.432,1.535,3.838c0,1.538-0.513,2.883-1.535,4.032
						c-1.026,1.152-2.435,1.729-4.226,1.729l0,0c-9.986,0-16.147-2.21-21.269-6.624c-5.12-4.42-7.68-11.619-7.68-21.604V70.706
						c0-1.409,0.67-2.527,2.015-3.362c1.344-0.832,2.718-1.249,4.129-1.249c1.536,0,2.977,0.417,4.318,1.249
						c1.346,0.835,2.018,1.953,2.018,3.362v38.598h11.062c1.278,0,2.335,0.512,3.168,1.536c0.833,1.027,1.249,2.241,1.249,3.65
						c0,1.408-0.416,2.623-1.249,3.647c-0.833,1.026-1.89,1.535-3.168,1.535h-11.062V171.907L544.556,171.907z"/>
					<path fill="#F6EC13" d="M410.413,298.563c-0.385,1.149-1.056,1.95-2.017,2.397c-0.959,0.45-1.954,0.675-2.977,0.675
						c-2.561,0-4.292-0.96-5.186-2.879l-19.971-62.413l-19.776,61.45c-0.77,2.56-2.627,3.842-5.572,3.842
						c-1.279,0-2.337-0.26-3.168-0.77c-0.833-0.513-1.506-1.535-2.016-3.072l-29.957-80.459c-0.511-1.024-0.769-1.984-0.769-2.881
						c0-1.539,0.801-2.849,2.401-3.938c1.6-1.088,3.296-1.633,5.09-1.633c1.022,0,1.95,0.226,2.783,0.672
						c0.833,0.451,1.377,1.185,1.632,2.209l24.581,68.365l19.78-62.412c0.637-2.174,2.301-3.263,4.99-3.263
						c1.153,0,2.178,0.222,3.074,0.671c0.894,0.451,1.537,1.314,1.92,2.592l19.009,63.178l25.156-69.131
						c0.257-0.895,0.77-1.6,1.537-2.112c0.769-0.511,1.662-0.769,2.688-0.769c1.662,0,3.328,0.48,4.992,1.439
						c1.665,0.961,2.498,2.338,2.498,4.132c0,1.15-0.261,2.111-0.77,2.88L410.413,298.563z"/>
					<path fill="#F6EC13" d="M470.711,208.115c6.398,0,11.809,1.025,16.225,3.07c4.415,2.051,7.997,4.803,10.755,8.258
						c2.751,3.457,4.732,7.428,5.952,11.906c1.215,4.483,1.824,9.093,1.824,13.829v49.926c0,1.411-0.576,2.594-1.727,3.555
						c-1.153,0.958-2.628,1.439-4.418,1.439c-1.666,0-3.044-0.481-4.129-1.439c-1.088-0.961-1.633-2.144-1.633-3.555v-8.448
						c-3.331,3.842-7.361,7.269-12.099,10.273c-4.735,3.007-10.37,4.515-16.899,4.515c-3.713,0-7.138-0.514-10.273-1.536
						c-3.135-1.024-5.888-2.595-8.257-4.706c-2.37-2.114-4.224-4.734-5.569-7.875c-1.344-3.134-2.013-6.878-2.013-11.232
						c0-5.247,1.085-9.569,3.262-12.963c2.178-3.391,5.217-6.078,9.124-8.063c3.903-1.986,8.608-3.362,14.113-4.13
						c5.503-0.77,11.584-1.152,18.242-1.152h9.794v-4.606c0-3.074-0.419-6.147-1.247-9.218c-0.836-3.075-2.145-5.86-3.936-8.357
						c-1.797-2.493-4.132-4.543-7.012-6.144c-2.88-1.6-6.369-2.399-10.465-2.399c-3.202,0-5.921,0.288-8.161,0.863
						c-2.241,0.576-4.163,1.219-5.762,1.921c-1.602,0.704-2.913,1.344-3.936,1.922c-1.024,0.575-1.919,0.861-2.687,0.861
						c-1.666,0-2.915-0.766-3.748-2.306c-0.833-1.535-1.247-3.005-1.247-4.416c0-1.277,0.77-2.496,2.305-3.648
						c1.538-1.15,3.554-2.175,6.051-3.073c2.494-0.891,5.281-1.631,8.353-2.208C464.563,208.403,467.636,208.115,470.711,208.115z
						 M492.985,258.426h-8.066c-4.48,0-8.735,0.163-12.769,0.481c-4.031,0.322-7.65,1.057-10.849,2.209
						c-3.2,1.15-5.732,2.816-7.588,4.991c-1.855,2.18-2.783,5.123-2.783,8.836c0,5.636,1.599,9.694,4.801,12.192
						c3.196,2.497,7.168,3.745,11.905,3.745c3.075,0,6.112-0.638,9.121-1.92c3.007-1.278,5.729-2.91,8.161-4.896
						c2.432-1.983,4.386-4.16,5.86-6.529c1.468-2.368,2.206-4.64,2.206-6.816V258.426L492.985,258.426z"/>
					<path fill="#F6EC13" d="M525.792,208.115c1.789,0,3.294,0.416,4.512,1.248c1.214,0.834,1.823,1.951,1.823,3.359v82.382
						c0,1.283-0.609,2.435-1.823,3.458c-1.218,1.026-2.723,1.536-4.512,1.536c-1.797,0-3.267-0.51-4.42-1.536
						c-1.15-1.023-1.727-2.175-1.727-3.458v-82.382c0-1.408,0.576-2.525,1.727-3.359
						C522.525,208.531,523.997,208.115,525.792,208.115z"/>
					<path fill="#F6EC13" d="M552.921,208.115c1.792,0,3.295,0.416,4.511,1.248c1.217,0.834,1.826,1.951,1.826,3.359v82.382
						c0,1.283-0.609,2.435-1.826,3.458c-1.216,1.026-2.719,1.536-4.511,1.536c-1.796,0-3.265-0.51-4.416-1.536
						c-1.154-1.023-1.731-2.175-1.731-3.458v-82.382c0-1.408,0.577-2.525,1.731-3.359
						C549.657,208.531,551.125,208.115,552.921,208.115z"/>
				</g>
			</g>
		</g>
	</g>
	<g>
		<path fill="#F6EC13" d="M223.89,124.945c-6.965-33.595-36.728-58.846-72.39-58.846c-40.833,0-73.933,33.102-73.933,73.934
			c0,9.846,2.006,19.527,5.855,28.583c1.264,2.973,2.732,5.837,4.178,8.723c1.57,3.131,2.954,6.35,4.433,9.522
			c1.581,3.396,3.151,6.793,4.693,10.204c1.474,3.259,2.924,6.524,4.332,9.81c1.318,3.069,2.601,6.152,3.834,9.259
			c1.132,2.848,2.221,5.712,3.248,8.601c0.93,2.612,1.809,5.239,2.621,7.889c0.729,2.373,1.402,4.761,2.006,7.166
			c0.54,2.142,1.022,4.296,1.44,6.465c0.372,1.929,0.689,3.866,0.946,5.812c0.229,1.733,0.412,3.472,0.539,5.217
			c0.116,1.553,0.19,3.11,0.218,4.668c0.026,1.39,0.016,2.777-0.035,4.167c-0.045,1.229-0.121,2.458-0.233,3.683
			c-0.101,1.077-0.228,2.15-0.396,3.221c-0.146,0.927-0.321,1.848-0.54,2.762c-0.188,0.787-0.406,1.563-0.669,2.325
			c-0.228,0.656-0.489,1.3-0.793,1.921c-0.267,0.542-0.566,1.065-0.902,1.566c-0.304,0.449-0.637,0.878-0.991,1.292
			c-0.333,0.386-0.686,0.753-1.043,1.115c-0.819,0.823-2.828,1.662-2.634,3.088c0.156,1.146,1.534,1.639,2.483,1.887
			c1.478,0.391,4.525,0.089,5.956-0.471C246.666,237.428,223.89,124.945,223.89,124.945z M169.776,148.66
			c-5.717,1.078-11.904-6.286-13.822-16.447c-1.917-10.163,1.162-19.273,6.878-20.352c5.713-1.079,11.902,6.285,13.818,16.448
			C178.568,138.471,175.488,147.581,169.776,148.66z M199.908,143.434c-5.713,1.078-11.902-6.285-13.818-16.446
			c-1.917-10.164,1.161-19.272,6.875-20.352c5.716-1.079,11.904,6.285,13.82,16.446
			C208.702,133.245,205.624,142.357,199.908,143.434z"/>
	</g>
</g>
</svg>
