<?xml version="1.0" encoding="utf-8"?>
<!-- Generator: Adobe Illustrator 16.0.4, SVG Export Plug-In . SVG Version: 6.00 Build 0)  -->
<!DOCTYPE svg PUBLIC "-//W3C//DTD SVG 1.1//EN" "http://www.w3.org/Graphics/SVG/1.1/DTD/svg11.dtd">
<svg version="1.1" id="Layer_1" xmlns="http://www.w3.org/2000/svg" xmlns:xlink="http://www.w3.org/1999/xlink" x="0px" y="0px"
	 width="500px" height="500px" viewBox="0 0 500 500" enable-background="new 0 0 500 500" xml:space="preserve">
<path fill="#FFFF00" d="M250,5.726C115.091,5.726,5.726,115.091,5.726,250c0,134.908,109.366,244.274,244.274,244.274
	S494.274,384.908,494.274,250C494.274,115.091,384.908,5.726,250,5.726z M305.023,409.062c-2.523,0.882-5.035,1.523-7.686,0.955
	c-4.008-0.855-6.095-3.659-6.098-8.396c-0.01-14.302,0.031-28.601,0.113-42.897c0.049-8.494-1.114-16.703-5.114-24.346
	c-1.404-2.686-3.451-4.9-5.761-7.92c8.471-1.006,16.18-2.318,23.72-4.461c29.547-8.395,46.062-27.991,50.218-58.284
	c1.852-13.498,2.329-26.881-2.267-40.017c-2.633-7.52-6.525-14.291-11.738-20.277c-1.285-1.473-1.485-2.734-0.92-4.548
	c4.065-13.018,2.896-25.833-1.547-38.543c-0.739-2.116-1.877-2.861-4.016-2.833c-7.91,0.107-15.166,2.683-22.248,5.836
	c-6.112,2.721-11.937,6.005-17.491,9.737c-1.703,1.144-3.217,1.604-5.406,1.052c-25.777-6.49-51.604-6.52-77.388-0.026
	c-2.141,0.538-3.677,0.174-5.432-0.953c-10.736-6.892-21.817-13.04-34.64-15.171c-1.543-0.256-3.129-0.253-4.684-0.462
	c-2.702-0.362-3.947,0.901-4.79,3.421c-4.223,12.63-5.311,25.331-1.215,38.183c0.558,1.749,0.215,2.866-0.915,4.189
	c-12.671,14.833-16.708,32.134-15.112,51.282c1.215,14.578,4.15,28.523,12.356,40.876c10.671,16.062,26.606,23.942,44.771,28.104
	c5.591,1.28,11.279,2.136,17.467,3.285c-5.512,6.109-8.599,13.03-9.781,20.799c-0.198,1.299-1.37,1.502-2.299,1.855
	c-17.755,6.789-34.891,3.966-45.762-13.926c-5.23-8.609-12.341-14.896-22.49-17.1c-2.73-0.592-5.444-0.631-8.146,0.271
	c-2.767,0.924-3.222,2.607-1.415,4.714c1.265,1.478,2.734,2.907,4.389,3.897c8.851,5.298,14.454,13.266,18.243,22.522
	c6.326,15.456,18.5,22.048,34.301,23.306c6.683,0.531,13.37,0.188,19.935-1.359c1.877-0.441,2.582,0.066,2.575,2.062
	c-0.023,9.444,0.19,18.895,0.05,28.333c-0.095,6.378-5.384,9.523-12.103,7.32c-16.82-5.519-32.34-13.616-46.409-24.328
	c-35.51-27.036-57.709-62.519-64.012-106.717c-8.05-56.451,9.232-104.872,50.479-144.248c24.771-23.647,54.652-37.71,88.497-42.673
	c90.265-13.236,171.322,46.761,187.411,131.246C428.048,303.592,382.604,381.934,305.023,409.062z M207.72,356.122
	c-0.063,2.032-1.895,2.69-3.66,2.813c-1.503,0.105-3.138-0.361-3.138-2.153c0-2.173,1.884-2.521,3.604-2.772
	C206.02,354.124,207.779,354.271,207.72,356.122z M195.085,357.879c0.105,1.947-1.712,2.507-3.306,2.592
	c-1.613,0.084-3.343-0.38-3.504-2.324c-0.179-2.168,1.669-2.287,3.177-2.506C193.155,355.703,194.979,355.927,195.085,357.879z
	 M181.542,356.57c0.014,1.66-1.551,1.867-2.913,1.785c-1.959-0.119-3.743-0.744-3.726-3.062c0.012-1.708,1.52-1.836,3.138-1.83
	C179.736,353.672,181.525,354.341,181.542,356.57z M169.703,349.883c-0.008,1.547-0.701,2.311-2.139,2.191
	c-2.21-0.182-3.564-1.379-3.806-3.611c-0.157-1.441,0.621-2.18,2.066-2.078C168.076,346.542,169.201,347.952,169.703,349.883z
	 M160.981,340.652c0.083,1.457-0.797,2.246-2.244,1.896c-1.889-0.458-2.791-1.843-2.773-3.75c0.012-1.271,0.768-1.868,2.198-1.778
	C159.892,337.499,160.875,338.797,160.981,340.652z M152.696,333.25c-1.817-0.007-2.901-1.033-3.111-2.824
	c-0.119-1.005,0.352-1.753,1.528-1.935c1.627,0.335,2.761,1.321,3.121,2.993C154.474,332.594,153.748,333.253,152.696,333.25z
	 M147.102,325.109c0.091,0.979-0.879,1.246-1.651,1.211c-1.212-0.053-2.394-0.479-2.705-1.795c-0.278-1.18,0.713-1.469,1.466-1.729
	C145.734,323.072,146.958,323.584,147.102,325.109z"/>
</svg>
