<?xml version="1.0" encoding="utf-8"?>
<!-- Generator: Adobe Illustrator 16.0.4, SVG Export Plug-In . SVG Version: 6.00 Build 0)  -->
<!DOCTYPE svg PUBLIC "-//W3C//DTD SVG 1.1//EN" "http://www.w3.org/Graphics/SVG/1.1/DTD/svg11.dtd">
<svg version="1.1" id="Layer_1" xmlns="http://www.w3.org/2000/svg" xmlns:xlink="http://www.w3.org/1999/xlink" x="0px" y="0px"
	 width="600px" height="127px" viewBox="0 0 600 127" enable-background="new 0 0 600 127" xml:space="preserve">
<g>
	<path fill="#FFFFFF" d="M120.35,61.881L72.267,13.797c-2.343-2.345-6.145-2.345-8.486,0L15.695,61.881
		c-2.343,2.342-2.343,6.143,0.001,8.484l48.084,48.086c0.031,0.031,0.066,0.052,0.098,0.078C63.464,85.127,50.802,72,42.847,67.051
		c-1.516,1.223-3.443,1.96-5.543,1.96c-4.883,0-8.84-3.96-8.84-8.842s3.957-8.84,8.84-8.84c4.611,0,8.394,3.532,8.8,8.038
		c5.364,3.057,12.392,8.836,17.795,19.559V37.293c-2.804-1.482-4.715-4.425-4.715-7.816c0-4.882,3.956-8.84,8.841-8.84
		c4.882,0,8.839,3.958,8.839,8.84c0,3.392-1.912,6.334-4.715,7.816v41.635c5.396-10.707,12.407-16.486,17.769-19.546
		c0.399-4.511,4.186-8.05,8.801-8.05c4.883,0,8.839,3.957,8.839,8.84c0,4.882-3.956,8.84-8.839,8.84
		c-2.11,0-4.045-0.741-5.564-1.977c-7.982,4.922-20.573,17.992-20.984,51.494c0.03-0.029,0.068-0.047,0.098-0.078l48.083-48.086
		C122.694,68.023,122.694,64.223,120.35,61.881z"/>
	<g>
		<path fill="#FFFFFF" d="M192.2,48.377c-3.818,0-4.924,0.1-5.928,0.201c0.401,2.01,0.502,4.019,0.502,5.928v4.119
			c-0.101,7.436-2.211,13.666-8.642,16.479c-4.823,2.111-13.564,2.513-18.487,1.709c-1.608,0.201-2.211,3.416,0.703,3.416
			c11.555,0,29.439-3.718,29.439,14.67c0,12.761-9.646,15.172-23.713,14.871c-4.119,0-13.062-0.201-20.297-1.909V94.798
			c8.24,2.411,32.154,5.828,32.154,0.101c0-2.311-3.617-3.215-10.953-3.215c-7.837,0.201-21.904,1.507-21.904-11.957
			c0-5.125,4.02-7.637,3.919-7.838c-3.818-4.221-3.818-9.947-3.818-13.264v-4.119c0-2.813,0-7.637,2.612-11.555
			c3.316-5.326,11.656-6.632,18.086-6.632c5.226,0,11.857,1.005,14.67,3.216c1.307-0.904,2.814-1.709,4.924-2.01h6.732V48.377z
			 M171.2,54.506c0-3.215-0.604-4.521-5.326-4.521s-5.426,1.307-5.426,4.521v4.421c0,3.315,0.805,4.22,5.426,4.22
			c4.623,0,5.326-0.904,5.326-4.22V54.506z"/>
		<path fill="#FFFFFF" d="M197.323,14.013h16.68v14.269h-16.68V14.013z M197.323,37.525h16.68v48.732h-16.68V37.525z"/>
		<path fill="#FFFFFF" d="M220.13,22.051h16.68v15.574h10.35v12.963h-10.35v16.277c0.302,9.043,4.221,7.938,11.455,7.334v12.359
			c-12.158,2.11-28.737,0.703-28.135-19.895V22.051z"/>
	</g>
	<g>
		<path fill="#FFFFFF" d="M279.773,50.436v35.871h-7.235V37.775c0,0,0.503,0,1.608,0h3.718c1.105,0,1.307,0,1.307,0l0.603,6.632
			c2.813-2.612,10.852-7.436,18.487-7.436v6.531C290.524,43.805,282.185,48.426,279.773,50.436z"/>
		<path fill="#FFFFFF" d="M324.585,36.771c14.268,0,18.689,5.324,18.689,13.162v36.373h-5.729l-1.004-4.119
			c-4.32,2.813-10.852,5.225-17.283,5.225c-9.646,0-14.268-5.525-14.268-12.258v-5.125c0-6.732,4.422-12.258,13.465-12.258h17.785
			v-7.135c0-4.723-2.514-7.436-11.758-7.436c-7.535,0-15.07,3.015-15.07,3.015v-6.833C309.413,39.383,318.354,36.771,324.585,36.771
			z M336.241,63.498h-16.479c-5.627,0-7.838,2.914-7.838,7.436v3.316c0,4.521,2.713,7.134,8.941,7.134
			c5.326,0,15.375-5.728,15.375-5.728V63.498z"/>
		<path fill="#FFFFFF" d="M398.233,54.757v31.55H391.3V54.455c0-8.34-3.416-13.062-12.459-11.254
			c-2.512,0.503-11.555,3.818-13.465,4.521v38.584c0,0-0.301,0-7.234,0V37.574h6.131l1.104,4.221
			c1.809-0.703,10.049-3.818,13.666-4.421C394.716,34.46,398.233,44.307,398.233,54.757z"/>
		<path fill="#FFFFFF" d="M431.188,36.771c3.617,0,7.938,0.803,11.152,1.507V13.962c0,0,0.402,0,7.234,0v69.934
			c0,0-11.053,3.517-18.387,3.517c-15.977,0-19.191-6.631-19.191-17.383V54.154C411.997,43.704,415.212,36.771,431.188,36.771z
			 M418.829,70.331c0,8.34,3.316,11.253,12.561,11.253c2.512,0,10.951-1.707,10.951-1.707v-35.57
			c-4.119-0.703-8.439-1.708-10.951-1.708c-9.244,0-12.561,2.914-12.561,11.254V70.331z"/>
		<path fill="#FFFFFF" d="M463.138,69.326V54.857c0-6.732,2.512-18.086,19.594-18.086s19.693,11.354,19.693,18.086v14.469
			c0,6.732-2.611,18.086-19.693,18.086S463.138,76.059,463.138,69.326z M470.071,54.556v15.071c0,7.838,4.422,11.957,12.66,11.957
			c8.34,0,12.66-4.119,12.66-11.957V54.556c0-7.837-4.32-11.957-12.66-11.957C474.493,42.599,470.071,46.719,470.071,54.556z"/>
		<path fill="#FFFFFF" d="M587.026,54.757v31.55h-6.832V54.455c0-8.34-4.623-13.062-13.666-11.254
			c-1.908,0.402-7.133,2.512-10.549,3.818c0,0,0,5.024,0,7.737v31.55h-6.834V54.455c0-8.34-3.416-13.062-12.559-11.254
			c-2.412,0.503-11.557,3.818-13.365,4.521v38.584c0,0-0.301,0-7.234,0V51.14V37.574h6.131l1.104,4.221
			c1.709-0.703,9.949-3.818,13.566-4.421c8.439-1.608,13.363,0.603,16.076,4.521c1.004-0.401,10.047-3.818,13.865-4.521
			C582.405,34.46,587.026,44.307,587.026,54.757z"/>
	</g>
</g>
</svg>
