<?xml version="1.0" encoding="utf-8"?>
<!-- Generator: Adobe Illustrator 16.0.4, SVG Export Plug-In . SVG Version: 6.00 Build 0)  -->
<!DOCTYPE svg PUBLIC "-//W3C//DTD SVG 1.1//EN" "http://www.w3.org/Graphics/SVG/1.1/DTD/svg11.dtd">
<svg version="1.1" id="Layer_1" xmlns="http://www.w3.org/2000/svg" xmlns:xlink="http://www.w3.org/1999/xlink" x="0px" y="0px"
	 width="500px" height="500px" viewBox="0 0 500 500" enable-background="new 0 0 500 500" xml:space="preserve">
<path fill="#FFFF00" d="M250,5.726C115.091,5.726,5.726,115.091,5.726,250c0,134.908,109.366,244.274,244.274,244.274
	S494.274,384.908,494.274,250C494.274,115.091,384.908,5.726,250,5.726z M180.336,358.029c-17.506-0.125-35.013-0.123-52.519-0.004
	c-2.751,0.02-3.499-0.728-3.495-3.496c0.081-56.688,0.062-113.375,0.062-170.062c0-0.927,0-1.853,0-3.139
	c19.938,0,39.379,0,59.177,0c0.07,1.218,0.189,2.312,0.189,3.406c0.01,56.584-0.01,113.167,0.066,169.75
	C183.821,357.203,183.133,358.049,180.336,358.029z M167.389,154.772c-10.374,3.601-20.622,3.174-30.578-1.703
	c-11.958-5.857-18.546-21.689-14.804-34.496c4.344-14.858,17.157-22.412,33.28-22.606c11.618,0.437,21.995,4.529,28.378,15.932
	C192.815,128.24,185.14,148.609,167.389,154.772z M393.336,358.023c-17.398-0.115-34.799-0.131-52.197,0.01
	c-2.971,0.025-3.614-0.939-3.604-3.73c0.09-29.797,0.084-59.592,0.037-89.389c-0.015-8.771-0.734-17.406-4.3-25.656
	c-5.254-12.169-16.45-16.865-28.465-15.565c-16.795,1.815-28.861,14.691-29.041,31.608c-0.344,32.711-0.197,65.426-0.254,98.139
	c-0.008,4.506-0.002,4.511-4.6,4.511c-16.879,0.002-33.756,0.002-50.634,0.002c-1.221,0-2.441,0-3.813,0
	c0-59.011,0-117.625,0-176.622c1.099-0.06,2.196-0.17,3.293-0.17c17.399-0.011,34.797,0.062,52.196-0.078
	c2.957-0.022,3.735,0.903,3.637,3.723c-0.192,5.619-0.062,11.25-0.049,16.875c0.002,0.996,0.086,1.991,0.144,3.255
	c4.09-4.566,7.555-9.013,11.604-12.844c9.75-9.223,21.633-13.837,34.92-14.744c16.5-1.126,32.178,1.496,46.039,11.229
	c11.492,8.069,18.75,19.21,23.231,32.363c4.015,11.772,5.394,23.951,5.443,36.269c0.135,32.399,0.006,64.806,0.117,97.203
	C397.051,357.383,396.125,358.039,393.336,358.023z"/>
</svg>
