<?xml version="1.0" encoding="utf-8"?>
<!-- Generator: Adobe Illustrator 16.0.4, SVG Export Plug-In . SVG Version: 6.00 Build 0)  -->
<!DOCTYPE svg PUBLIC "-//W3C//DTD SVG 1.1//EN" "http://www.w3.org/Graphics/SVG/1.1/DTD/svg11.dtd">
<svg version="1.1" id="Layer_1" xmlns="http://www.w3.org/2000/svg" xmlns:xlink="http://www.w3.org/1999/xlink" x="0px" y="0px"
	 width="500px" height="500px" viewBox="0 0 500 500" enable-background="new 0 0 500 500" xml:space="preserve">
<g>
	<path fill="#F6EC13" d="M164.679,245.411c-1.842-1.544-4.086-2.316-6.728-2.316c-2.644,0-5.066,0.801-7.263,2.406
		c-2.198,1.604-3.475,3.772-3.831,6.505h21.03C167.588,249.153,166.52,246.956,164.679,245.411z"/>
	<path fill="#F6EC13" d="M410.708,245.411c-1.842-1.544-4.086-2.316-6.728-2.316c-2.645,0-5.065,0.801-7.263,2.406
		c-2.198,1.604-3.477,3.772-3.832,6.505h21.03C413.618,249.153,412.549,246.956,410.708,245.411z"/>
	<path fill="#F6EC13" d="M106.223,232.312c-1.782-1.248-4.901-1.872-9.357-1.872H86.44v18.445h10.159
		c4.752,0,7.989-0.771,9.713-2.316c1.722-1.544,2.583-3.994,2.583-7.352C108.896,235.862,108.005,233.559,106.223,232.312z"/>
	<path fill="#F6EC13" d="M250,5.726C115.091,5.726,5.726,115.091,5.726,250c0,134.908,109.366,244.274,244.274,244.274
		S494.274,384.908,494.274,250C494.274,115.091,384.908,5.726,250,5.726z M109.876,280.787l-13.812-19.871H86.44v19.871H72.54V218.5
		h23.614c9.683,0,16.589,1.635,20.719,4.901c4.128,3.268,6.193,8.525,6.193,15.772c0,9.98-3.951,16.427-11.852,19.337l15.772,22.277
		H109.876z M181.431,261.54H146.5c0.416,2.614,1.783,4.753,4.099,6.416c2.317,1.663,4.93,2.493,7.842,2.493
		c4.692,0,8.554-1.571,11.583-4.721l7.486,8.108c-5.407,5.109-11.749,7.663-19.025,7.663c-7.278,0-13.293-2.241-18.044-6.727
		c-4.754-4.486-7.13-10.5-7.13-18.046c0-7.544,2.42-13.544,7.263-18c4.841-4.456,10.559-6.683,17.154-6.683
		c6.594,0,12.192,1.991,16.797,5.971c4.603,3.98,6.906,9.445,6.906,16.395V261.54z M221.931,277.224
		c-3.475,2.851-7.886,4.276-13.233,4.276c-3.564,0-7.278-0.639-11.139-1.914c-3.862-1.278-7.337-3.165-10.426-5.66l5.881-8.377
		c4.99,3.863,10.306,5.793,15.951,5.793c1.722,0,3.088-0.342,4.098-1.025c1.01-0.682,1.516-1.589,1.516-2.718
		c0-1.128-0.699-2.167-2.094-3.118c-1.397-0.95-3.417-1.841-6.06-2.673c-2.644-0.833-4.664-1.544-6.06-2.14
		c-1.396-0.593-2.985-1.454-4.768-2.583c-3.624-2.257-5.435-5.6-5.435-10.025c0-4.425,1.782-8.034,5.346-10.827
		c3.564-2.792,8.167-4.188,13.812-4.188c5.643,0,11.287,1.901,16.931,5.703l-4.99,8.911c-4.159-2.852-8.302-4.277-12.431-4.277
		s-6.193,1.129-6.193,3.387c0,1.248,0.653,2.228,1.96,2.94c1.307,0.713,3.476,1.546,6.506,2.496c3.029,0.95,5.182,1.679,6.46,2.183
		c1.277,0.506,2.807,1.292,4.59,2.361c3.326,2.02,4.99,5.392,4.99,10.114S225.406,274.371,221.931,277.224z M281.768,280.787
		h-13.456v-6.326c-3.328,4.693-7.619,7.039-12.877,7.039c-5.257,0-9.668-1.648-13.232-4.945c-3.564-3.298-5.346-8.183-5.346-14.659
		v-29.049h13.455v26.109c0,7.367,2.702,11.051,8.109,11.051c2.673,0,4.989-0.966,6.95-2.896c1.96-1.931,2.94-4.738,2.94-8.422
		v-25.842h13.456V280.787z M369.897,280.787H356.44V254.59c0-7.366-2.703-11.05-8.108-11.05c-2.673,0-4.989,0.966-6.95,2.896
		c-1.96,1.932-2.94,4.768-2.94,8.51v25.842h-13.456V254.59c0-3.802-0.579-6.595-1.737-8.376c-1.158-1.783-3.03-2.673-5.613-2.673
		c-2.585,0-4.873,0.966-6.862,2.896c-1.991,1.932-2.984,4.768-2.984,8.51v25.842h-13.367v-47.941h13.367v5.436
		c3.683-4.157,7.899-6.237,12.653-6.237c3.029,0,5.776,0.891,8.242,2.673c2.465,1.782,4.322,3.951,5.569,6.504
		c1.841-2.909,4.322-5.168,7.44-6.771c3.119-1.604,6.252-2.406,9.401-2.406c5.644,0,10.188,1.679,13.634,5.034
		c3.444,3.358,5.169,8.214,5.169,14.569V280.787z M396.629,267.956c2.316,1.663,4.93,2.493,7.842,2.493
		c4.691,0,8.554-1.571,11.583-4.721l7.485,8.108c-5.406,5.109-11.747,7.663-19.023,7.663c-7.278,0-13.294-2.241-18.045-6.727
		c-4.755-4.486-7.13-10.5-7.13-18.046c0-7.544,2.42-13.544,7.263-18c4.842-4.456,10.56-6.683,17.153-6.683
		c6.595,0,12.192,1.991,16.798,5.971c4.603,3.98,6.906,9.445,6.906,16.395v7.13h-34.932
		C392.944,264.154,394.312,266.293,396.629,267.956z"/>
</g>
</svg>
