<?xml version="1.0" encoding="utf-8"?>
<!-- Generator: Adobe Illustrator 16.0.4, SVG Export Plug-In . SVG Version: 6.00 Build 0)  -->
<!DOCTYPE svg PUBLIC "-//W3C//DTD SVG 1.1//EN" "http://www.w3.org/Graphics/SVG/1.1/DTD/svg11.dtd">
<svg version="1.1" id="Layer_1" xmlns="http://www.w3.org/2000/svg" xmlns:xlink="http://www.w3.org/1999/xlink" x="0px" y="0px"
	 width="500px" height="500px" viewBox="0 0 500 500" enable-background="new 0 0 500 500" xml:space="preserve">
<g>
	<path fill="#FFFFFF" d="M250,5.726C115.091,5.726,5.726,115.091,5.726,250c0,134.908,109.366,244.274,244.274,244.274
		S494.274,384.908,494.274,250C494.274,115.091,384.908,5.726,250,5.726z M384.1,171.502c-6.47,6.487-13.175,12.745-19.906,18.961
		c-1.334,1.231-1.953,2.302-1.92,4.165c0.746,42.409-12.582,80.013-39.508,112.614c-25.059,30.342-57.438,48.484-96.206,54.771
		c-37.717,6.116-73.694,0.467-107.496-17.725c-3.061-1.646-6-3.521-9.022-5.559c30.969,2.454,59.001-5.102,84.247-24.167
		c-26.417-2.268-44.12-15.495-53.947-40.382c8.936,1.389,17.181,1.269,25.879-1.05c-16.204-3.969-28.596-12.504-37.214-26.235
		c-5.85-9.319-8.748-19.504-8.65-31.05c8.078,3.893,16.177,6.67,25.808,6.893c-14.682-10.742-23.199-24.456-25-41.782
		c-1.412-13.58,1.638-26.153,7.509-35.018c31.205,36.682,70.722,56.883,119.019,60.266c-0.366-3.446-0.858-6.583-1.009-9.738
		c-1.289-26.893,13.722-49.758,39.306-58.266c21.332-7.095,40.787-2.606,57.604,12.375c2.229,1.985,3.973,2.646,6.956,1.892
		c10.474-2.649,20.483-6.365,29.919-11.628c0.713-0.396,1.458-0.738,2.815-1.42c-4.636,13.527-12.669,23.541-23.854,31.26
		c10.793-0.913,20.938-4.013,31.195-7.708C388.469,165.836,386.605,168.991,384.1,171.502z"/>
</g>
</svg>
