<?xml version="1.0" encoding="utf-8"?>
<!-- Generator: Adobe Illustrator 16.0.4, SVG Export Plug-In . SVG Version: 6.00 Build 0)  -->
<!DOCTYPE svg PUBLIC "-//W3C//DTD SVG 1.1//EN" "http://www.w3.org/Graphics/SVG/1.1/DTD/svg11.dtd">
<svg version="1.1" id="Layer_1" xmlns="http://www.w3.org/2000/svg" xmlns:xlink="http://www.w3.org/1999/xlink" x="0px" y="0px"
	 width="72px" height="72px" viewBox="0 0 72 72" enable-background="new 0 0 72 72" xml:space="preserve">
<g>
	<path fill="#FFFFFF" d="M31.982,39.616c-0.462-0.019-0.893,0.454-0.889,0.987c0.571,0,1.124,0,1.674,0
		C32.821,40.084,32.456,39.632,31.982,39.616z"/>
	<path fill="#FFFFFF" d="M58.012,39.622c-0.463,0.012-0.873,0.485-0.849,0.981c0.562,0,1.124,0,1.685,0
		C58.857,40.027,58.494,39.609,58.012,39.622z"/>
	<path fill="#FFFFFF" d="M54.311,35.672c0.252,0.447,0.851,0.478,1.164,0.071c0.101-0.132,0.172-0.297,0.225-0.457
		c0.136-0.422,0.119-0.861,0.105-1.297c0-0.241,0.021-0.482-0.008-0.718c-0.035-0.296-0.089-0.592-0.175-0.877
		c-0.088-0.296-0.308-0.461-0.626-0.487c-0.333-0.026-0.598,0.089-0.745,0.39c-0.089,0.182-0.161,0.382-0.19,0.582
		c-0.104,0.689-0.098,1.383,0.006,2.071C54.104,35.197,54.188,35.454,54.311,35.672z"/>
	<path fill="#FFFFFF" d="M43.627,39.622c-0.465-0.011-0.879,0.442-0.889,0.981c0.566,0,1.133,0,1.699,0
		C44.436,40.032,44.098,39.634,43.627,39.622z"/>
	<path fill="#FFFFFF" d="M43.234,34.217c-0.559,0.217-0.812,0.772-0.621,1.344c0.127,0.381,0.467,0.558,0.854,0.447
		c0.305-0.086,0.495-0.298,0.633-0.566c0.219-0.434,0.178-0.896,0.16-1.365C43.895,34.058,43.559,34.091,43.234,34.217z"/>
	<path fill="#FFFFFF" d="M36,0.29L5.075,18.145v35.71L36,71.71l30.925-17.854V18.146L36,0.29z M29.64,23.705
		c0.81-0.251,1.619-0.503,2.432-0.746c0.108-0.033,0.241-0.049,0.346-0.018c0.871,0.256,1.738,0.525,2.606,0.792
		c0.045,0.015,0.087,0.04,0.174,0.081c-0.542,0.142-1.037,0.271-1.532,0.4c-0.398,0.105-0.795,0.214-1.193,0.312
		c-0.105,0.026-0.226,0.044-0.327,0.018c-0.904-0.232-1.805-0.476-2.707-0.716c-0.002-0.015-0.005-0.029-0.008-0.044
		C29.5,23.757,29.569,23.727,29.64,23.705z M35.861,24.286c0,1.521,0,3.011,0,4.53c-1.042,0.346-2.084,0.691-3.153,1.046
		c0-1.562,0-3.092,0-4.653C33.761,24.9,34.802,24.596,35.861,24.286z M28.722,24.287c1.057,0.309,2.097,0.613,3.151,0.922
		c0,1.545,0,3.082,0,4.655c-1.076-0.355-2.109-0.696-3.151-1.04C28.722,27.319,28.722,25.821,28.722,24.287z M29.107,30.696
		c1.028,0.207,1.54,0.815,1.555,1.868c0.011,0.712,0.019,1.425-0.002,2.136c-0.013,0.484,0.084,0.913,0.402,1.292
		c0.158,0.188,0.133,0.273-0.05,0.432c-0.24,0.208-0.48,0.415-0.723,0.621c-0.21,0.178-0.294,0.184-0.487-0.005
		c-0.194-0.19-0.367-0.405-0.569-0.631c-0.088,0.079-0.177,0.159-0.266,0.237c-0.624,0.551-1.359,0.672-2.143,0.502
		c-0.614-0.135-1.001-0.535-1.164-1.146c-0.115-0.434-0.106-0.868,0.037-1.293c0.193-0.57,0.592-0.952,1.14-1.187
		c0.439-0.186,0.905-0.256,1.375-0.311c0.263-0.03,0.525-0.06,0.821-0.094c-0.019-0.25-0.021-0.481-0.056-0.707
		c-0.043-0.285-0.232-0.461-0.505-0.521c-0.596-0.13-1.061,0.17-1.166,0.618c-0.055,0.232-0.111,0.256-0.353,0.236
		c-0.308-0.029-0.615-0.064-0.921-0.101c-0.219-0.027-0.284-0.119-0.236-0.333c0.132-0.573,0.446-1.014,0.959-1.307
		c0.302-0.172,0.627-0.274,0.97-0.328C28.188,30.604,28.648,30.604,29.107,30.696z M20.74,24.284
		c1.071,0.314,2.112,0.619,3.161,0.927c0,1.55,0,3.08,0,4.653c-1.07-0.352-2.114-0.696-3.161-1.042
		C20.74,27.313,20.74,25.823,20.74,24.284z M11.922,36.473c-1.062-0.351-2.091-0.69-3.135-1.035c0-1.506,0-3.002,0-4.537
		c1.049,0.307,2.087,0.611,3.135,0.917C11.922,33.363,11.922,34.894,11.922,36.473z M12.142,31.144
		c-0.843-0.225-1.687-0.446-2.531-0.67c-0.041-0.011-0.078-0.03-0.152-0.061c0.083-0.035,0.139-0.064,0.196-0.082
		c0.826-0.258,1.651-0.513,2.477-0.771c0.114-0.035,0.221-0.054,0.348-0.016c0.865,0.271,1.735,0.532,2.603,0.796
		c0.046,0.014,0.09,0.038,0.163,0.068c-0.084,0.03-0.138,0.056-0.194,0.07c-0.844,0.223-1.688,0.442-2.532,0.667
		C12.389,31.182,12.268,31.179,12.142,31.144z M15.924,30.896c0,1.521,0,3.013,0,4.531c-1.061,0.352-2.099,0.695-3.158,1.046
		c0-1.565,0-3.097,0-4.652C13.81,31.515,14.859,31.208,15.924,30.896z M15.921,43.036c-0.191,0-2.693-0.804-3.162-1.013
		c0-1.496,0-2.979,0-4.461c0.193-0.018,2.416,0.604,3.162,0.883C15.921,39.973,15.921,41.505,15.921,43.036z M16.213,37.771
		c-0.887-0.229-1.772-0.467-2.658-0.703c-0.022-0.004-0.041-0.021-0.096-0.051c0.082-0.035,0.138-0.062,0.198-0.08
		c0.825-0.258,1.651-0.518,2.479-0.766c0.101-0.03,0.224-0.041,0.322-0.013c0.887,0.265,1.77,0.538,2.654,0.812
		c0.024,0.006,0.046,0.019,0.069,0.027c0.001,0.018,0.003,0.033,0.005,0.051c-0.253,0.067-0.506,0.137-0.76,0.201
		c-0.646,0.17-1.292,0.341-1.939,0.505C16.4,37.777,16.298,37.793,16.213,37.771z M19.896,42.044
		c-1.05,0.349-2.081,0.688-3.137,1.038c0-1.566,0-3.098,0-4.65c1.044-0.306,2.083-0.609,3.137-0.918
		C19.896,39.048,19.896,40.545,19.896,42.044z M19.904,36.473c-1.062-0.351-2.099-0.692-3.146-1.038c0-1.512,0-3.009,0-4.538
		c1.063,0.312,2.104,0.616,3.146,0.922C19.904,33.372,19.904,34.904,19.904,36.473z M20.135,31.15
		c-0.843-0.229-1.688-0.449-2.532-0.674c-0.048-0.014-0.093-0.038-0.166-0.067c0.077-0.032,0.128-0.059,0.181-0.076
		c0.843-0.261,1.687-0.519,2.528-0.782c0.102-0.032,0.193-0.04,0.298-0.008c0.867,0.269,1.737,0.53,2.605,0.796
		c0.047,0.014,0.09,0.04,0.167,0.075c-0.094,0.03-0.157,0.054-0.221,0.072c-0.827,0.22-1.656,0.436-2.483,0.656
		C20.386,31.176,20.266,31.185,20.135,31.15z M23.902,35.427c-1.061,0.352-2.098,0.694-3.157,1.046c0-1.563,0-3.095,0-4.652
		c1.042-0.306,2.089-0.613,3.157-0.926C23.902,32.417,23.902,33.906,23.902,35.427z M24.157,24.542
		c-0.871-0.225-1.739-0.46-2.607-0.692c-0.033-0.009-0.065-0.02-0.097-0.03c0.002-0.016,0.003-0.032,0.006-0.049
		c0.333-0.104,0.667-0.207,1-0.311c0.548-0.169,1.097-0.336,1.644-0.509c0.119-0.038,0.228-0.049,0.35-0.012
		c0.867,0.269,1.736,0.532,2.604,0.798c0.039,0.012,0.075,0.032,0.162,0.07c-0.157,0.043-0.265,0.077-0.374,0.105
		c-0.787,0.207-1.573,0.417-2.361,0.618C24.38,24.556,24.259,24.568,24.157,24.542z M24.73,25.21
		c1.041-0.306,2.081-0.611,3.147-0.924c0,1.526,0,3.023,0,4.531c-1.045,0.347-2.083,0.691-3.147,1.045
		C24.73,28.297,24.73,26.767,24.73,25.21z M30.078,39.454c-0.3,1.091-0.601,2.181-0.902,3.271c-0.019,0.065-0.027,0.14-0.063,0.194
		c-0.034,0.054-0.094,0.113-0.15,0.121c-0.125,0.019-0.257,0.017-0.384,0.002c-0.135-0.015-0.162-0.136-0.193-0.244
		c-0.148-0.519-0.297-1.038-0.446-1.556c-0.062-0.213-0.125-0.422-0.232-0.635c-0.026,0.086-0.054,0.168-0.077,0.252
		c-0.167,0.63-0.333,1.259-0.501,1.888c-0.079,0.295-0.09,0.303-0.382,0.303c-0.328,0.003-0.335-0.002-0.426-0.317
		c-0.316-1.104-0.632-2.207-0.948-3.312c-0.014-0.049-0.038-0.099-0.037-0.147c0-0.049,0.015-0.114,0.047-0.135
		c0.171-0.111,0.365-0.062,0.548-0.043c0.127,0.012,0.167,0.129,0.198,0.241c0.174,0.638,0.349,1.272,0.523,1.909
		c0.026,0.095,0.058,0.189,0.086,0.283c0.017,0,0.033-0.002,0.05-0.004c0.091-0.334,0.183-0.668,0.271-1.002
		c0.107-0.397,0.209-0.795,0.318-1.191c0.062-0.229,0.099-0.252,0.346-0.255c0.279-0.002,0.31,0.013,0.377,0.245
		c0.188,0.65,0.373,1.303,0.559,1.951c0.027,0.098,0.058,0.192,0.13,0.289c0.025-0.076,0.053-0.149,0.075-0.226
		c0.188-0.651,0.373-1.301,0.561-1.952c0.083-0.285,0.277-0.389,0.567-0.299c0.094,0.028,0.145,0.089,0.125,0.189
		C30.11,39.339,30.094,39.396,30.078,39.454z M33.293,41.164c-0.661,0.005-1.321,0.003-1.981,0.005
		c-0.084,0.001-0.168,0.001-0.272,0.001c-0.024,0.309,0.029,0.559,0.154,0.787c0.333,0.611,1.146,0.641,1.524,0.057
		c0.064-0.099,0.09-0.25,0.232-0.25c0.151,0,0.308,0.024,0.453,0.07c0.122,0.038,0.118,0.15,0.072,0.26
		c-0.096,0.225-0.235,0.417-0.419,0.578c-0.642,0.562-2.128,0.619-2.642-0.605c-0.294-0.699-0.278-1.408,0.053-2.094
		c0.43-0.889,1.37-1.088,2.115-0.812c0.346,0.127,0.589,0.375,0.759,0.696c0.163,0.31,0.235,0.644,0.255,0.988
		C33.614,41.113,33.567,41.162,33.293,41.164z M37.049,42.164c-0.281,0.584-0.749,0.874-1.407,0.839
		c-0.296-0.017-0.547-0.131-0.766-0.323c-0.058-0.05-0.109-0.105-0.195-0.193c-0.042,0.113-0.068,0.191-0.099,0.27
		c-0.061,0.146-0.155,0.202-0.3,0.182c-0.135-0.021-0.191-0.09-0.202-0.252c-0.003-0.051-0.001-0.104-0.001-0.153
		c0-1.442,0-2.884,0-4.327c0-0.051,0-0.104,0.001-0.154c0.002-0.033,0.002-0.07,0.018-0.1c0.122-0.219,0.332-0.133,0.509-0.133
		c0.15,0,0.212,0.074,0.217,0.231c0.008,0.274,0.003,0.548,0.003,0.823c0,0.171,0,0.343,0,0.54c0.049-0.022,0.083-0.028,0.1-0.048
		c0.441-0.53,1.536-0.484,2.011,0.262c0.131,0.205,0.226,0.443,0.287,0.682C37.387,40.941,37.334,41.57,37.049,42.164z
		 M38.238,36.906c-0.002-0.068-0.002-0.139-0.002-0.207c0-1.141,0.002-2.282,0-3.422c0-0.18-0.002-0.361-0.032-0.538
		c-0.078-0.471-0.47-0.688-0.918-0.519c-0.261,0.099-0.438,0.285-0.485,0.556c-0.045,0.269-0.066,0.544-0.066,0.817
		c-0.008,1.013-0.004,2.025-0.004,3.038c0,0.488-0.01,0.498-0.508,0.498c-0.274,0-0.549,0.003-0.823-0.002
		c-0.205-0.005-0.273-0.074-0.286-0.279c-0.004-0.06-0.002-0.119-0.002-0.181c0.002-1.089,0.006-2.178,0.001-3.267
		c-0.001-0.247-0.018-0.498-0.068-0.74c-0.066-0.311-0.264-0.465-0.551-0.49c-0.359-0.03-0.599,0.095-0.735,0.395
		c-0.128,0.279-0.147,0.58-0.147,0.881c-0.002,1.081-0.001,2.162-0.001,3.244c0,0.067,0.004,0.138-0.003,0.205
		c-0.013,0.151-0.076,0.229-0.222,0.229c-0.386,0.01-0.772,0.01-1.158,0.002c-0.147-0.003-0.206-0.078-0.22-0.229
		c-0.006-0.061-0.002-0.121-0.002-0.182c0-1.826,0-3.654,0.001-5.481c0-0.042-0.001-0.084,0-0.127
		c0.008-0.237,0.069-0.299,0.313-0.304c0.3-0.005,0.601-0.005,0.9,0c0.245,0.003,0.312,0.077,0.318,0.331
		c0.003,0.163,0.001,0.323,0.001,0.486c0.574-1.215,2.455-1.333,3.053,0.094c0.046-0.075,0.084-0.138,0.121-0.202
		c0.526-0.903,1.826-1.113,2.616-0.427c0.331,0.289,0.473,0.664,0.506,1.089c0.014,0.154,0.016,0.309,0.016,0.463
		c0,1.355-0.004,2.709-0.004,4.066c0,0.068,0,0.138-0.003,0.206c-0.009,0.132-0.083,0.215-0.209,0.216
		c-0.395,0.009-0.79,0.009-1.185,0C38.318,37.121,38.245,37.036,38.238,36.906z M41.01,42.785c-0.322,0.201-0.683,0.263-0.92,0.263
		c-0.469,0-0.785-0.058-1.083-0.207c-0.295-0.146-0.515-0.368-0.634-0.679c-0.078-0.199-0.03-0.288,0.174-0.339
		c0.064-0.019,0.135-0.029,0.2-0.042c0.179-0.03,0.25-0.018,0.306,0.15c0.149,0.439,0.973,0.668,1.461,0.381
		c0.162-0.094,0.243-0.242,0.236-0.427c-0.008-0.182-0.107-0.315-0.273-0.37c-0.209-0.07-0.429-0.113-0.646-0.166
		c-0.224-0.057-0.455-0.09-0.67-0.168c-0.481-0.177-0.713-0.516-0.712-0.99c0.002-0.482,0.25-0.84,0.727-1.014
		c0.477-0.172,0.958-0.168,1.436,0.006c0.32,0.116,0.551,0.34,0.682,0.657c0.07,0.175,0.031,0.257-0.143,0.31
		c-0.064,0.021-0.135,0.027-0.2,0.047c-0.154,0.043-0.267,0.002-0.341-0.146c-0.17-0.341-0.68-0.513-1.104-0.333
		c-0.147,0.064-0.263,0.161-0.289,0.335c-0.032,0.23,0.06,0.401,0.3,0.471c0.246,0.068,0.504,0.104,0.754,0.158
		c0.19,0.045,0.387,0.084,0.567,0.152c0.427,0.167,0.649,0.499,0.677,0.947C41.537,42.205,41.381,42.555,41.01,42.785z
		 M45.025,41.17c-0.068,0.007-0.139,0.004-0.207,0.004c-0.608,0-1.217,0-1.824,0c-0.096,0-0.188,0-0.305,0
		c-0.012,0.278,0.023,0.503,0.123,0.717c0.153,0.332,0.422,0.518,0.783,0.543c0.348,0.023,0.604-0.146,0.787-0.438
		c0.059-0.091,0.086-0.231,0.219-0.229c0.158,0.006,0.319,0.041,0.475,0.086c0.037,0.013,0.07,0.11,0.068,0.17
		c0,0.062-0.039,0.131-0.069,0.19c-0.279,0.521-0.728,0.786-1.306,0.831c-0.992,0.076-1.713-0.51-1.861-1.514
		c-0.075-0.491-0.043-0.977,0.154-1.438c0.408-0.94,1.293-1.188,2.076-0.96c0.346,0.102,0.605,0.314,0.793,0.619
		c0.221,0.359,0.312,0.756,0.315,1.175C45.25,41.104,45.199,41.152,45.025,41.17z M45.102,37.07
		c-0.207-0.201-0.396-0.422-0.608-0.655c-0.126,0.106-0.25,0.226-0.388,0.328c-0.657,0.505-1.399,0.59-2.17,0.36
		c-0.629-0.188-0.967-0.667-1.055-1.304c-0.037-0.277-0.035-0.571,0.016-0.846c0.129-0.694,0.562-1.159,1.203-1.434
		c0.43-0.183,0.889-0.251,1.349-0.307c0.263-0.032,0.526-0.059,0.815-0.091c0.01-0.256,0.029-0.5-0.031-0.744
		c-0.062-0.258-0.229-0.423-0.479-0.484c-0.562-0.134-1.065,0.124-1.188,0.618c-0.056,0.225-0.105,0.251-0.328,0.232
		c-0.325-0.029-0.648-0.063-0.973-0.105c-0.185-0.024-0.246-0.121-0.207-0.306c0.131-0.629,0.479-1.105,1.057-1.379
		c0.896-0.425,1.822-0.457,2.748-0.102c0.69,0.264,1.029,0.806,1.05,1.535c0.019,0.745,0.008,1.493,0.01,2.238
		c0.001,0.112,0.001,0.225,0.001,0.337c-0.001,0.309,0.086,0.59,0.271,0.84c0.057,0.077,0.117,0.15,0.166,0.229
		c0.102,0.164,0.096,0.231-0.049,0.356c-0.265,0.232-0.529,0.464-0.801,0.688C45.348,37.212,45.253,37.218,45.102,37.07z
		 M47.672,39.622c-0.025,0.112-0.104,0.146-0.201,0.166c-0.637,0.127-0.973,0.517-0.986,1.172c-0.014,0.558-0.004,1.113-0.004,1.67
		c0,0.388-0.035,0.421-0.43,0.411c-0.043,0-0.086,0.002-0.129-0.005c-0.104-0.019-0.169-0.076-0.177-0.188
		c-0.005-0.06-0.005-0.119-0.005-0.18c0-1.037,0-2.072,0-3.109c0-0.052-0.002-0.103,0.003-0.152
		c0.005-0.043,0.007-0.094,0.032-0.123c0.132-0.16,0.315-0.09,0.479-0.084c0.117,0.005,0.173,0.097,0.17,0.218
		c0,0.058,0.006,0.116,0.01,0.222c0.094-0.105,0.146-0.172,0.205-0.234c0.145-0.153,0.32-0.252,0.527-0.297
		C47.6,39.016,47.768,39.188,47.672,39.622z M51.312,39.371c-0.371,1.122-0.744,2.243-1.117,3.365
		c-0.096,0.295-0.11,0.305-0.418,0.303c-0.371-0.001-0.416,0.08-0.576-0.41c-0.355-1.072-0.729-2.141-1.094-3.21
		c-0.017-0.05-0.035-0.099-0.049-0.146c-0.035-0.14,0.01-0.224,0.148-0.236c0.152-0.014,0.309-0.012,0.462,0
		c0.144,0.012,0.19,0.128,0.229,0.246c0.104,0.318,0.209,0.635,0.312,0.951c0.177,0.537,0.354,1.072,0.531,1.606
		c0.018-0.002,0.036-0.005,0.057-0.008c0.077-0.242,0.159-0.483,0.236-0.728c0.19-0.596,0.381-1.19,0.573-1.785
		c0.086-0.269,0.412-0.398,0.658-0.264c0.073,0.041,0.115,0.103,0.086,0.19C51.337,39.29,51.326,39.331,51.312,39.371z
		 M51.336,36.909c-1.287-0.588-2.57-0.593-3.855,0.006c-0.246,0.114-0.369,0.035-0.373-0.245c-0.006-0.256,0-0.514-0.002-0.771
		c-0.004-0.259,0.072-0.484,0.225-0.696c0.677-0.95,1.348-1.906,2.02-2.859c0.053-0.075,0.1-0.153,0.166-0.256
		c-0.115-0.005-0.197-0.011-0.281-0.011c-0.521-0.001-1.045,0-1.568-0.003c-0.271,0-0.336-0.064-0.341-0.33
		c-0.005-0.206-0.005-0.413,0-0.618c0.005-0.277,0.062-0.334,0.333-0.334c0.936-0.002,1.869-0.002,2.807-0.002
		c0.283,0,0.566-0.003,0.85,0.002c0.22,0.004,0.276,0.061,0.285,0.274c0.006,0.205-0.002,0.412,0.002,0.618
		c0.002,0.186-0.102,0.325-0.199,0.465c-0.586,0.826-1.172,1.651-1.756,2.477c-0.088,0.126-0.174,0.253-0.293,0.421
		c0.137,0.006,0.232,0.013,0.33,0.014c0.572,0.015,1.119,0.131,1.647,0.36c0.282,0.122,0.417,0.304,0.396,0.614
		c-0.015,0.214,0.004,0.429-0.004,0.645C51.713,36.949,51.586,37.023,51.336,36.909z M52.453,41.04c0,0.573,0.002,1.147,0,1.721
		c-0.002,0.269-0.049,0.313-0.311,0.321c-0.438,0.018-0.471-0.014-0.471-0.443c0-1.088,0-2.176,0.002-3.263
		c0-0.344,0.03-0.373,0.385-0.374c0.025,0,0.053,0,0.077,0.001c0.269,0.008,0.314,0.054,0.316,0.315
		C52.455,39.895,52.453,40.467,52.453,41.04z M52.079,38.548c-0.255,0.011-0.489-0.211-0.487-0.462c0-0.247,0.209-0.452,0.463-0.455
		c0.264-0.004,0.459,0.184,0.467,0.442C52.523,38.328,52.332,38.536,52.079,38.548z M52.331,34.765
		c-0.126-0.783-0.095-1.559,0.181-2.307c0.11-0.293,0.262-0.581,0.443-0.836c0.918-1.282,3.039-1.268,3.963,0.081
		c0.311,0.456,0.493,0.958,0.576,1.499c0.042,0.261,0.055,0.527,0.08,0.791c-0.012,0.691-0.145,1.349-0.489,1.952
		c-0.376,0.657-0.917,1.11-1.672,1.256c-1.006,0.193-1.963-0.133-2.556-1.026C52.574,35.743,52.413,35.27,52.331,34.765z
		 M54.605,43.043c-0.719,0.033-1.252-0.293-1.512-0.964c-0.264-0.683-0.266-1.377,0.014-2.058c0.305-0.739,0.934-1.071,1.722-0.935
		c0.571,0.101,1.078,0.647,1.127,1.224c0.015,0.164-0.045,0.239-0.21,0.258c-0.076,0.007-0.154,0-0.23,0
		c-0.139,0-0.225-0.068-0.264-0.2c-0.021-0.073-0.038-0.15-0.068-0.22c-0.115-0.274-0.315-0.451-0.619-0.473
		c-0.295-0.02-0.51,0.126-0.66,0.369c-0.129,0.207-0.188,0.441-0.213,0.682c-0.012,0.11-0.012,0.224-0.017,0.334
		c0.007,0.363,0.048,0.723,0.253,1.035c0.288,0.441,0.864,0.439,1.154,0c0.051-0.078,0.089-0.166,0.123-0.255
		c0.113-0.302,0.307-0.396,0.613-0.304c0.121,0.036,0.154,0.115,0.143,0.234C55.891,42.438,55.277,43.011,54.605,43.043z
		 M59.441,41.17c-0.068,0.007-0.137,0.004-0.205,0.004c-0.608,0-1.217,0-1.826,0c-0.094,0-0.186,0-0.303,0
		c-0.019,0.312,0.029,0.571,0.166,0.807c0.344,0.594,1.14,0.61,1.511,0.039c0.022-0.037,0.044-0.074,0.063-0.112
		c0.061-0.126,0.161-0.169,0.295-0.146c0.067,0.013,0.137,0.024,0.203,0.04c0.241,0.059,0.278,0.133,0.168,0.363
		c-0.271,0.552-0.729,0.831-1.326,0.879c-0.938,0.073-1.604-0.417-1.826-1.338c-0.131-0.548-0.104-1.091,0.119-1.611
		c0.398-0.939,1.285-1.191,2.071-0.963c0.337,0.1,0.593,0.307,0.779,0.598c0.233,0.362,0.328,0.77,0.334,1.196
		C59.668,41.102,59.617,41.152,59.441,41.17z M62.561,42.812c-0.312,0.182-0.656,0.235-0.951,0.236
		c-0.401-0.003-0.729-0.061-1.03-0.22c-0.289-0.154-0.509-0.377-0.617-0.692c-0.062-0.177-0.021-0.257,0.154-0.308
		c0.065-0.019,0.135-0.026,0.202-0.039c0.213-0.042,0.248-0.03,0.343,0.163c0.087,0.181,0.224,0.302,0.401,0.378
		c0.312,0.132,0.633,0.151,0.953,0.03c0.148-0.059,0.262-0.159,0.312-0.318c0.067-0.223-0.019-0.438-0.252-0.523
		c-0.214-0.082-0.444-0.117-0.669-0.174c-0.23-0.06-0.473-0.096-0.692-0.185c-0.546-0.22-0.766-0.673-0.636-1.246
		c0.064-0.284,0.229-0.506,0.482-0.636c0.612-0.311,1.236-0.311,1.851,0.006c0.22,0.113,0.368,0.304,0.467,0.529
		c0.086,0.201,0.044,0.289-0.159,0.343c-0.05,0.015-0.101,0.022-0.15,0.032c-0.215,0.045-0.242,0.035-0.363-0.142
		c-0.252-0.368-0.705-0.504-1.107-0.331c-0.209,0.09-0.316,0.26-0.289,0.465c0.024,0.191,0.146,0.307,0.326,0.35
		c0.242,0.057,0.487,0.096,0.729,0.15c0.185,0.041,0.371,0.077,0.547,0.143c0.429,0.16,0.66,0.482,0.697,0.932
		C63.145,42.213,62.965,42.578,62.561,42.812z M62.861,37.129c-0.31,0.002-0.617,0.002-0.926-0.002
		c-0.277-0.001-0.334-0.054-0.336-0.331c-0.002-1.03,0.004-2.061,0-3.088c0-0.258-0.01-0.516-0.026-0.772
		c-0.009-0.118-0.033-0.239-0.074-0.35c-0.153-0.422-0.61-0.567-0.989-0.322c-0.164,0.106-0.268,0.261-0.336,0.443
		c-0.111,0.293-0.146,0.599-0.146,0.909c0,1.021,0,2.042-0.002,3.063c0,0.06,0.002,0.119,0,0.18
		c-0.012,0.193-0.075,0.264-0.271,0.268c-0.358,0.006-0.72,0.006-1.081,0c-0.182-0.004-0.238-0.07-0.251-0.254
		c-0.005-0.061-0.002-0.12-0.002-0.182c0-1.811-0.002-3.621-0.002-5.433c0-0.051-0.001-0.102,0-0.154
		c0.009-0.236,0.07-0.299,0.312-0.304c0.302-0.005,0.603-0.005,0.901,0c0.238,0.003,0.298,0.067,0.304,0.311
		c0,0.213,0,0.425,0,0.637c0.018,0.003,0.035,0.006,0.051,0.01c0.065-0.118,0.127-0.239,0.199-0.355
		c0.4-0.634,0.965-0.803,1.694-0.693c0.657,0.099,1.103,0.548,1.229,1.218c0.059,0.302,0.094,0.613,0.097,0.92
		c0.012,1.312,0.007,2.625,0.005,3.938C63.212,37.075,63.158,37.126,62.861,37.129z"/>
	<path fill="#FFFFFF" d="M35.241,39.786c-0.241,0.2-0.385,0.466-0.402,0.774c-0.018,0.309-0.019,0.619,0.006,0.924
		c0.015,0.175,0.074,0.355,0.158,0.511c0.15,0.274,0.406,0.425,0.718,0.417c0.302-0.006,0.499-0.194,0.627-0.462
		c0.135-0.285,0.164-0.591,0.184-0.899c-0.028-0.386-0.057-0.771-0.275-1.107C36.011,39.562,35.588,39.497,35.241,39.786z"/>
	<path fill="#FFFFFF" d="M28.034,34.192c-0.658,0.229-0.813,0.739-0.697,1.308c0.086,0.424,0.47,0.631,0.885,0.503
		c0.372-0.114,0.572-0.396,0.692-0.74c0.133-0.379,0.114-0.772,0.095-1.161C28.734,34.048,28.334,34.088,28.034,34.192z"/>
</g>
</svg>
