<?xml version="1.0" encoding="utf-8"?>
<!-- Generator: Adobe Illustrator 16.0.4, SVG Export Plug-In . SVG Version: 6.00 Build 0)  -->
<!DOCTYPE svg PUBLIC "-//W3C//DTD SVG 1.1//EN" "http://www.w3.org/Graphics/SVG/1.1/DTD/svg11.dtd">
<svg version="1.1" id="Layer_1" xmlns="http://www.w3.org/2000/svg" xmlns:xlink="http://www.w3.org/1999/xlink" x="0px" y="0px"
	 width="72px" height="72px" viewBox="0 0 72 72" enable-background="new 0 0 72 72" xml:space="preserve">
<g>
	<path fill="#FFFFFF" d="M38.338,35.59c-0.268-0.044-0.533-0.066-0.799-0.066c-0.801,0-1.433,0.134-1.895,0.399
		c-0.463,0.267-0.694,0.624-0.694,1.075c0,0.348,0.145,0.635,0.433,0.859c0.289,0.225,0.656,0.338,1.104,0.338
		c0.662,0,1.272-0.17,1.836-0.51c0.563-0.343,0.846-0.695,0.846-1.064v-0.828h-0.001C38.883,35.701,38.605,35.633,38.338,35.59z"/>
	<path fill="#FFFFFF" d="M36,0.29L5.075,18.145v35.71L36,71.71l30.925-17.854V18.146L36,0.29z M44.859,28.839
		c0.102-0.144,0.317-0.215,0.649-0.215c0.322,0,0.535,0.061,0.642,0.181c0.104,0.12,0.156,0.406,0.156,0.856
		c0,0.44-0.05,0.712-0.146,0.817c-0.099,0.105-0.313,0.157-0.652,0.157c-0.332,0-0.549-0.049-0.649-0.146
		c-0.102-0.097-0.152-0.3-0.152-0.607C44.707,29.33,44.758,28.982,44.859,28.839z M17.351,37.691
		c0.465,0.402,1.101,0.604,1.906,0.604c0.608,0,1.271-0.16,1.989-0.479c0.717-0.319,1.151-0.479,1.302-0.479
		c0.156,0,0.286,0.048,0.391,0.146c0.104,0.098,0.155,0.219,0.155,0.36c0,0.148-0.055,0.285-0.163,0.406
		c-0.109,0.123-0.284,0.242-0.522,0.358c-0.521,0.248-1.057,0.439-1.61,0.572c-0.554,0.131-1.104,0.197-1.65,0.197
		c-1.185,0-2.134-0.336-2.846-1.01c-0.713-0.672-1.068-1.564-1.068-2.674c0-1.131,0.377-2.047,1.131-2.749
		c0.753-0.701,1.736-1.051,2.947-1.051c1.097,0,2.007,0.328,2.729,0.982s1.084,1.448,1.084,2.38c0,0.286-0.061,0.479-0.183,0.575
		c-0.123,0.097-0.454,0.146-0.995,0.146h-0.116H16.59v0.001C16.632,36.717,16.885,37.288,17.351,37.691z M33.35,39.049
		c-0.094,0.092-0.231,0.139-0.414,0.139h-0.943c-0.208,0-0.361-0.062-0.46-0.186c-0.099-0.121-0.148-0.316-0.148-0.582v-3.51
		c0-0.722-0.065-1.209-0.198-1.462c-0.132-0.253-0.358-0.38-0.68-0.38c-0.384,0-0.688,0.164-0.913,0.491
		c-0.225,0.327-0.338,0.778-0.338,1.351v3.193h0.139c0.315,0,0.525,0.037,0.631,0.11c0.106,0.074,0.158,0.213,0.158,0.418
		c0,0.185-0.044,0.322-0.132,0.414c-0.089,0.093-0.224,0.14-0.406,0.14h-0.99c-0.224,0-0.376-0.052-0.456-0.154
		c-0.081-0.102-0.121-0.322-0.121-0.66v-0.223V34.91v-0.599c0-0.384-0.088-0.687-0.265-0.909c-0.177-0.223-0.419-0.334-0.726-0.334
		c-0.234,0-0.448,0.068-0.644,0.203c-0.195,0.136-0.362,0.337-0.503,0.603v4.229h0.286c0.31,0,0.519,0.037,0.627,0.115
		c0.108,0.076,0.163,0.215,0.163,0.414c0,0.209-0.044,0.354-0.132,0.434c-0.089,0.078-0.257,0.119-0.506,0.119H24.31
		c-0.203,0-0.352-0.045-0.448-0.135c-0.096-0.09-0.144-0.229-0.144-0.418c0-0.205,0.061-0.344,0.182-0.418s0.357-0.111,0.708-0.111
		h0.155v-4.928h-0.14c-0.361,0-0.607-0.041-0.739-0.122c-0.132-0.081-0.197-0.224-0.197-0.427c0-0.178,0.052-0.311,0.156-0.4
		s0.26-0.133,0.468-0.133h1.193c0.171,0,0.284,0.029,0.339,0.087c0.055,0.058,0.087,0.182,0.098,0.37
		c0.214-0.224,0.442-0.389,0.688-0.497c0.245-0.107,0.521-0.16,0.828-0.16c0.364,0,0.665,0.078,0.902,0.233
		c0.237,0.155,0.413,0.391,0.527,0.706c0.219-0.32,0.471-0.557,0.757-0.709s0.614-0.229,0.983-0.229
		c0.671,0,1.162,0.215,1.471,0.645c0.31,0.43,0.465,1.126,0.465,2.088v3.478h0.124c0.319,0,0.533,0.037,0.642,0.115
		c0.108,0.076,0.162,0.215,0.162,0.414C33.49,38.818,33.443,38.957,33.35,39.049z M41.531,39.046c-0.104,0.093-0.26,0.14-0.467,0.14
		H39.84c-0.146,0-0.266-0.043-0.359-0.131c-0.092-0.089-0.155-0.214-0.188-0.378l-0.062-0.466c-0.426,0.379-0.892,0.668-1.392,0.867
		c-0.502,0.199-1.021,0.299-1.549,0.299c-0.774,0-1.399-0.213-1.875-0.637c-0.476-0.426-0.714-0.977-0.714-1.658
		c0-0.809,0.316-1.436,0.947-1.881c0.632-0.445,1.52-0.668,2.665-0.668c0.301,0,0.604,0.02,0.912,0.059
		c0.307,0.038,0.621,0.098,0.942,0.18v-0.054c0-0.588-0.144-1.023-0.429-1.305c-0.286-0.281-0.729-0.422-1.334-0.422
		c-0.405,0-0.856,0.107-1.356,0.322c-0.499,0.215-0.829,0.322-0.99,0.322c-0.151,0-0.276-0.06-0.375-0.18s-0.147-0.275-0.147-0.464
		c0-0.302,0.287-0.558,0.861-0.768c0.574-0.21,1.309-0.315,2.205-0.315c0.914,0,1.604,0.229,2.073,0.687
		c0.468,0.458,0.701,1.135,0.701,2.03v3.479h0.383c0.369,0,0.615,0.037,0.74,0.114c0.125,0.076,0.188,0.216,0.188,0.414
		C41.688,38.816,41.634,38.954,41.531,39.046z M49.109,39.066c-0.092,0.078-0.258,0.119-0.502,0.119h-6.045
		c-0.207,0-0.363-0.047-0.47-0.139c-0.104-0.092-0.153-0.23-0.153-0.414c0-0.18,0.055-0.312,0.162-0.4
		c0.108-0.086,0.272-0.129,0.491-0.129h2.38v-4.928h-1.527c-0.213,0-0.377-0.047-0.488-0.141c-0.111-0.094-0.168-0.23-0.168-0.408
		c0-0.178,0.051-0.311,0.156-0.4c0.104-0.089,0.26-0.133,0.467-0.133h2.285c0.141,0,0.252,0.028,0.332,0.084
		c0.08,0.057,0.121,0.133,0.121,0.23v5.695h2.504c0.201,0,0.352,0.041,0.447,0.125c0.096,0.086,0.145,0.22,0.145,0.404
		C49.246,38.842,49.201,38.986,49.109,39.066z M56.633,39.066c-0.088,0.078-0.254,0.119-0.498,0.119h-5.756
		c-0.203,0-0.357-0.047-0.465-0.14c-0.105-0.092-0.16-0.229-0.16-0.414c0-0.18,0.055-0.312,0.164-0.399
		c0.109-0.086,0.273-0.129,0.492-0.129h2.16v-7.86h-1.326c-0.504,0-0.82-0.04-0.947-0.119c-0.127-0.08-0.191-0.224-0.191-0.434
		c0-0.184,0.054-0.322,0.16-0.414c0.107-0.092,0.262-0.138,0.465-0.138h2.572c0.141,0,0.25,0.028,0.328,0.084
		c0.078,0.056,0.117,0.133,0.117,0.23v8.651h2.449c0.197,0,0.342,0.041,0.432,0.125c0.092,0.086,0.137,0.219,0.137,0.403
		C56.766,38.841,56.721,38.986,56.633,39.066z"/>
	<path fill="#FFFFFF" d="M20.93,33.502c-0.439-0.371-0.979-0.557-1.618-0.557c-0.691,0-1.273,0.179-1.747,0.538
		c-0.473,0.357-0.785,0.854-0.936,1.488h5.077C21.628,34.363,21.369,33.873,20.93,33.502z"/>
</g>
</svg>
