<?xml version="1.0" encoding="utf-8"?>
<!-- Generator: Adobe Illustrator 16.0.4, SVG Export Plug-In . SVG Version: 6.00 Build 0)  -->
<!DOCTYPE svg PUBLIC "-//W3C//DTD SVG 1.1//EN" "http://www.w3.org/Graphics/SVG/1.1/DTD/svg11.dtd">
<svg version="1.1" id="Layer_1" xmlns="http://www.w3.org/2000/svg" xmlns:xlink="http://www.w3.org/1999/xlink" x="0px" y="0px"
	 width="72px" height="72px" viewBox="0 0 72 72" enable-background="new 0 0 72 72" xml:space="preserve">
<path fill="#FFFFFF" d="M36,0.29L5.075,18.145v35.71L36,71.71l30.925-17.854V18.146L36,0.29z M51.569,24.387
	c-1.736,8.226-3.485,16.448-5.243,24.67c-0.088,0.41-0.236,0.822-0.433,1.192c-0.322,0.61-0.886,0.858-1.545,0.667
	c-0.444-0.13-0.903-0.309-1.273-0.579c-2.529-1.846-5.037-3.722-7.552-5.587c-0.101-0.075-0.204-0.146-0.34-0.244
	c-1.269,1.227-2.516,2.438-3.771,3.641c-0.445,0.427-0.943,0.775-1.562,0.906c-0.085,0.018-0.174,0.018-0.294,0.029
	c0.048-0.658,0.091-1.287,0.14-1.915c0.156-2.009,0.318-4.017,0.466-6.026c0.021-0.293,0.107-0.51,0.333-0.715
	c4.92-4.483,9.833-8.974,14.749-13.464c0.042-0.039,0.098-0.071,0.124-0.119c0.083-0.151,0.155-0.308,0.232-0.463
	c-0.188-0.053-0.378-0.156-0.562-0.144c-0.183,0.012-0.372,0.115-0.534,0.217c-6.206,3.903-12.409,7.81-18.608,11.721
	c-0.193,0.122-0.354,0.146-0.576,0.077c-2.515-0.778-5.033-1.544-7.55-2.317c-0.329-0.101-0.67-0.181-0.979-0.327
	c-0.619-0.294-0.765-0.838-0.307-1.347c0.288-0.32,0.686-0.592,1.087-0.752c2.499-0.998,5.011-1.96,7.521-2.929
	c8.012-3.093,16.025-6.183,24.038-9.272c0.214-0.083,0.431-0.163,0.652-0.221c1.016-0.269,1.933,0.313,1.994,1.36
	C51.814,23.087,51.703,23.751,51.569,24.387z"/>
</svg>
