<?xml version="1.0" encoding="utf-8"?>
<!-- Generator: Adobe Illustrator 16.0.4, SVG Export Plug-In . SVG Version: 6.00 Build 0)  -->
<!DOCTYPE svg PUBLIC "-//W3C//DTD SVG 1.1//EN" "http://www.w3.org/Graphics/SVG/1.1/DTD/svg11.dtd">
<svg version="1.1" id="Layer_1" xmlns="http://www.w3.org/2000/svg" xmlns:xlink="http://www.w3.org/1999/xlink" x="0px" y="0px"
	 width="72px" height="72px" viewBox="0 0 72 72" enable-background="new 0 0 72 72" xml:space="preserve">
<path fill="#FFFFFF" d="M36,0.29L5.075,18.145v35.71L36,71.71l30.925-17.854V18.146L36,0.29z M53.441,25.812
	c-0.844,0.846-1.719,1.662-2.596,2.472c-0.176,0.161-0.258,0.3-0.25,0.543c0.096,5.529-1.643,10.432-5.152,14.683
	c-3.27,3.956-7.488,6.321-12.543,7.141c-4.917,0.8-9.608,0.062-14.015-2.311c-0.399-0.215-0.782-0.459-1.176-0.725
	c4.038,0.318,7.693-0.666,10.984-3.151c-3.444-0.296-5.752-2.021-7.034-5.265c1.165,0.181,2.24,0.165,3.374-0.137
	c-2.113-0.52-3.729-1.631-4.852-3.422c-0.763-1.214-1.141-2.542-1.128-4.048c1.053,0.508,2.109,0.87,3.365,0.899
	c-1.915-1.4-3.025-3.188-3.26-5.448c-0.184-1.771,0.214-3.41,0.979-4.565c4.069,4.783,9.221,7.417,15.518,7.857
	c-0.048-0.449-0.112-0.858-0.132-1.27c-0.168-3.506,1.79-6.488,5.125-7.597c2.781-0.925,5.316-0.34,7.512,1.613
	c0.289,0.259,0.518,0.345,0.906,0.247c1.365-0.345,2.67-0.83,3.898-1.516c0.096-0.052,0.191-0.096,0.367-0.185
	c-0.604,1.764-1.65,3.069-3.107,4.076c1.404-0.119,2.729-0.523,4.064-1.005C54.01,25.073,53.768,25.484,53.441,25.812z"/>
</svg>
