<?xml version="1.0" encoding="utf-8"?>
<!-- Generator: Adobe Illustrator 16.0.4, SVG Export Plug-In . SVG Version: 6.00 Build 0)  -->
<!DOCTYPE svg PUBLIC "-//W3C//DTD SVG 1.1//EN" "http://www.w3.org/Graphics/SVG/1.1/DTD/svg11.dtd">
<svg version="1.1" id="Layer_1" xmlns="http://www.w3.org/2000/svg" xmlns:xlink="http://www.w3.org/1999/xlink" x="0px" y="0px"
	 width="72px" height="72px" viewBox="0 0 72 72" enable-background="new 0 0 72 72" xml:space="preserve">
<g>
	<path fill="#FFFFFF" d="M31.982,39.616c-0.462-0.018-0.893,0.454-0.889,0.988c0.571,0,1.124,0,1.674,0
		C32.821,40.084,32.456,39.632,31.982,39.616z"/>
	<path fill="#FFFFFF" d="M58.012,39.622c-0.463,0.012-0.874,0.486-0.849,0.982c0.562,0,1.124,0,1.685,0
		C58.857,40.028,58.494,39.609,58.012,39.622z"/>
	<path fill="#FFFFFF" d="M54.31,35.672c0.252,0.447,0.851,0.478,1.164,0.071c0.101-0.132,0.172-0.297,0.225-0.457
		c0.136-0.422,0.119-0.861,0.105-1.297c0-0.241,0.021-0.482-0.007-0.718c-0.035-0.296-0.089-0.592-0.175-0.877
		c-0.088-0.296-0.308-0.461-0.626-0.487c-0.333-0.026-0.597,0.089-0.745,0.39c-0.089,0.182-0.161,0.382-0.191,0.582
		c-0.104,0.689-0.097,1.383,0.007,2.071C54.104,35.197,54.188,35.454,54.31,35.672z"/>
	<path fill="#FFFFFF" d="M43.627,39.622c-0.465-0.011-0.879,0.443-0.888,0.982c0.566,0,1.132,0,1.698,0
		C44.435,40.032,44.097,39.634,43.627,39.622z"/>
	<path fill="#FFFFFF" d="M43.234,34.217c-0.558,0.217-0.812,0.772-0.621,1.344c0.127,0.381,0.467,0.558,0.854,0.447
		c0.305-0.086,0.495-0.298,0.633-0.566c0.218-0.434,0.178-0.896,0.16-1.365C43.895,34.058,43.558,34.091,43.234,34.217z"/>
	<path fill="#FFFFFF" d="M36,0.29L5.075,18.145v35.71L36,71.71l30.925-17.854v-35.71L36,0.29z M29.64,23.705
		c0.81-0.251,1.619-0.503,2.432-0.746c0.108-0.033,0.241-0.049,0.346-0.018c0.871,0.256,1.738,0.525,2.606,0.792
		c0.045,0.015,0.087,0.04,0.174,0.081c-0.542,0.142-1.037,0.271-1.532,0.4c-0.398,0.105-0.795,0.214-1.193,0.312
		c-0.105,0.026-0.226,0.044-0.327,0.018c-0.904-0.232-1.805-0.476-2.707-0.716c-0.002-0.015-0.005-0.029-0.008-0.044
		C29.5,23.757,29.569,23.727,29.64,23.705z M35.861,24.286c0,1.521,0,3.011,0,4.53c-1.042,0.346-2.084,0.691-3.153,1.046
		c0-1.562,0-3.092,0-4.653C33.761,24.9,34.802,24.596,35.861,24.286z M28.722,24.287c1.057,0.309,2.097,0.613,3.151,0.922
		c0,1.545,0,3.082,0,4.655c-1.076-0.355-2.109-0.696-3.151-1.04C28.722,27.319,28.722,25.821,28.722,24.287z M29.107,30.696
		c1.028,0.207,1.54,0.815,1.555,1.868c0.011,0.712,0.019,1.425-0.002,2.136c-0.013,0.484,0.084,0.913,0.402,1.292
		c0.158,0.188,0.133,0.273-0.05,0.432c-0.24,0.208-0.48,0.415-0.723,0.621c-0.21,0.177-0.294,0.183-0.487-0.005
		c-0.194-0.191-0.367-0.405-0.569-0.631c-0.088,0.079-0.177,0.159-0.266,0.237c-0.624,0.551-1.359,0.672-2.143,0.502
		c-0.614-0.134-1.001-0.535-1.164-1.146c-0.115-0.434-0.106-0.868,0.037-1.293c0.193-0.57,0.592-0.952,1.14-1.187
		c0.439-0.186,0.905-0.256,1.375-0.311c0.263-0.03,0.525-0.06,0.821-0.094c-0.019-0.25-0.021-0.481-0.056-0.707
		c-0.043-0.285-0.232-0.461-0.505-0.521c-0.596-0.13-1.061,0.17-1.166,0.618c-0.055,0.232-0.111,0.256-0.353,0.236
		c-0.308-0.029-0.615-0.064-0.921-0.101c-0.219-0.027-0.284-0.119-0.236-0.333c0.132-0.573,0.446-1.014,0.959-1.307
		c0.302-0.172,0.627-0.274,0.97-0.328C28.188,30.604,28.648,30.604,29.107,30.696z M20.74,24.284
		c1.071,0.314,2.112,0.619,3.161,0.927c0,1.55,0,3.08,0,4.653c-1.07-0.352-2.114-0.696-3.161-1.042
		C20.74,27.313,20.74,25.823,20.74,24.284z M11.922,36.473c-1.062-0.351-2.091-0.69-3.135-1.035c0-1.506,0-3.002,0-4.537
		c1.049,0.307,2.087,0.611,3.135,0.917C11.922,33.363,11.922,34.894,11.922,36.473z M12.142,31.144
		c-0.843-0.225-1.687-0.446-2.531-0.67c-0.041-0.011-0.078-0.03-0.152-0.061c0.083-0.035,0.139-0.064,0.196-0.082
		c0.826-0.258,1.651-0.513,2.477-0.771c0.114-0.035,0.221-0.054,0.348-0.016c0.865,0.271,1.735,0.532,2.603,0.796
		c0.046,0.014,0.09,0.038,0.163,0.068c-0.084,0.03-0.138,0.056-0.194,0.07c-0.844,0.223-1.688,0.442-2.532,0.667
		C12.389,31.182,12.268,31.179,12.142,31.144z M15.924,30.896c0,1.521,0,3.013,0,4.531c-1.061,0.352-2.099,0.695-3.158,1.046
		c0-1.565,0-3.097,0-4.652C13.81,31.515,14.859,31.208,15.924,30.896z M15.921,43.036c-0.191,0-2.693-0.803-3.162-1.013
		c0-1.496,0-2.978,0-4.46c0.193-0.018,2.416,0.604,3.162,0.882C15.921,39.973,15.921,41.505,15.921,43.036z M16.213,37.771
		c-0.887-0.229-1.772-0.467-2.658-0.702c-0.022-0.005-0.041-0.022-0.096-0.051c0.082-0.035,0.138-0.063,0.198-0.081
		c0.825-0.258,1.651-0.517,2.479-0.765c0.101-0.03,0.224-0.041,0.322-0.013c0.887,0.265,1.77,0.538,2.654,0.811
		c0.024,0.006,0.046,0.019,0.069,0.028c0.001,0.018,0.003,0.033,0.005,0.051c-0.253,0.067-0.506,0.136-0.76,0.201
		c-0.646,0.17-1.292,0.341-1.939,0.505C16.4,37.777,16.298,37.793,16.213,37.771z M19.896,42.044
		c-1.05,0.348-2.081,0.688-3.137,1.038c0-1.566,0-3.098,0-4.65c1.044-0.306,2.083-0.61,3.137-0.919
		C19.896,39.048,19.896,40.545,19.896,42.044z M19.904,36.473c-1.062-0.351-2.099-0.692-3.146-1.038c0-1.512,0-3.009,0-4.538
		c1.063,0.312,2.104,0.616,3.146,0.922C19.904,33.372,19.904,34.904,19.904,36.473z M20.135,31.15
		c-0.843-0.229-1.688-0.449-2.532-0.674c-0.048-0.014-0.093-0.038-0.166-0.067c0.077-0.032,0.128-0.059,0.181-0.076
		c0.843-0.261,1.687-0.519,2.528-0.782c0.102-0.032,0.193-0.04,0.298-0.008c0.867,0.269,1.737,0.53,2.605,0.796
		c0.047,0.014,0.09,0.04,0.167,0.075c-0.094,0.03-0.157,0.054-0.221,0.072c-0.827,0.22-1.656,0.436-2.483,0.656
		C20.386,31.176,20.266,31.185,20.135,31.15z M23.902,35.427c-1.061,0.352-2.098,0.694-3.157,1.046c0-1.563,0-3.095,0-4.652
		c1.042-0.306,2.089-0.613,3.157-0.926C23.902,32.417,23.902,33.906,23.902,35.427z M24.157,24.542
		c-0.871-0.225-1.739-0.46-2.607-0.692c-0.033-0.009-0.065-0.02-0.097-0.03c0.002-0.016,0.003-0.032,0.006-0.049
		c0.333-0.104,0.667-0.207,1-0.311c0.548-0.169,1.097-0.336,1.644-0.509c0.119-0.038,0.228-0.049,0.35-0.012
		c0.867,0.269,1.736,0.532,2.604,0.798c0.039,0.012,0.075,0.032,0.162,0.07c-0.157,0.043-0.265,0.077-0.374,0.105
		c-0.787,0.207-1.573,0.417-2.361,0.618C24.38,24.556,24.259,24.568,24.157,24.542z M24.73,25.21
		c1.041-0.306,2.081-0.611,3.147-0.924c0,1.526,0,3.023,0,4.531c-1.045,0.347-2.083,0.691-3.147,1.045
		C24.73,28.297,24.73,26.767,24.73,25.21z M30.078,39.454c-0.3,1.091-0.601,2.181-0.902,3.271c-0.019,0.065-0.027,0.139-0.063,0.194
		c-0.034,0.053-0.094,0.113-0.15,0.121c-0.125,0.018-0.257,0.016-0.384,0.002c-0.135-0.015-0.162-0.136-0.193-0.244
		c-0.148-0.519-0.297-1.038-0.446-1.556c-0.062-0.212-0.125-0.422-0.232-0.634c-0.026,0.085-0.054,0.168-0.077,0.252
		c-0.167,0.629-0.333,1.258-0.501,1.887c-0.079,0.295-0.09,0.303-0.382,0.303c-0.328,0.003-0.335-0.002-0.426-0.317
		c-0.316-1.104-0.632-2.208-0.948-3.312c-0.014-0.049-0.038-0.099-0.037-0.148c0-0.048,0.015-0.114,0.047-0.135
		c0.171-0.111,0.365-0.062,0.548-0.043c0.127,0.013,0.167,0.13,0.198,0.242c0.174,0.637,0.349,1.273,0.523,1.909
		c0.026,0.095,0.058,0.189,0.086,0.284c0.017-0.001,0.033-0.003,0.05-0.004c0.091-0.335,0.183-0.668,0.271-1.002
		c0.107-0.398,0.209-0.796,0.318-1.192c0.062-0.229,0.099-0.252,0.346-0.255c0.279-0.002,0.31,0.013,0.377,0.245
		c0.188,0.651,0.373,1.303,0.559,1.952c0.027,0.097,0.058,0.192,0.13,0.288c0.025-0.075,0.053-0.149,0.075-0.225
		c0.188-0.651,0.373-1.301,0.561-1.952c0.083-0.285,0.277-0.389,0.567-0.299c0.094,0.028,0.145,0.089,0.125,0.19
		C30.11,39.339,30.094,39.396,30.078,39.454z M33.293,41.164c-0.661,0.005-1.321,0.003-1.981,0.005
		c-0.084,0.001-0.168,0.001-0.272,0.001c-0.024,0.308,0.029,0.558,0.154,0.787c0.333,0.611,1.146,0.64,1.524,0.056
		c0.064-0.098,0.09-0.249,0.232-0.249c0.151-0.001,0.308,0.024,0.453,0.07c0.122,0.038,0.118,0.151,0.072,0.26
		c-0.096,0.225-0.235,0.417-0.419,0.578c-0.642,0.562-2.128,0.619-2.642-0.606c-0.294-0.699-0.278-1.408,0.053-2.093
		c0.43-0.889,1.37-1.088,2.115-0.812c0.346,0.127,0.589,0.375,0.759,0.697c0.163,0.309,0.235,0.643,0.255,0.988
		C33.614,41.113,33.567,41.162,33.293,41.164z M37.049,42.164c-0.281,0.584-0.749,0.874-1.407,0.839
		c-0.296-0.016-0.547-0.131-0.766-0.323c-0.058-0.05-0.109-0.106-0.195-0.194c-0.042,0.113-0.068,0.192-0.099,0.27
		c-0.061,0.146-0.155,0.202-0.3,0.181c-0.135-0.021-0.191-0.089-0.202-0.251c-0.003-0.051-0.001-0.104-0.001-0.154
		c0-1.442,0-2.884,0-4.327c0-0.051,0-0.103,0.001-0.154c0.002-0.033,0.002-0.071,0.018-0.1c0.122-0.219,0.332-0.133,0.509-0.133
		c0.15,0,0.212,0.075,0.217,0.232c0.008,0.274,0.003,0.548,0.003,0.823c0,0.171,0,0.343,0,0.54c0.049-0.022,0.083-0.028,0.1-0.048
		c0.441-0.53,1.536-0.484,2.01,0.262c0.131,0.205,0.226,0.444,0.287,0.682C37.386,40.942,37.334,41.57,37.049,42.164z
		 M38.239,36.906c-0.003-0.068-0.003-0.138-0.003-0.207c0.001-1.141,0.003-2.282,0.001-3.422c0-0.18-0.003-0.361-0.033-0.538
		c-0.078-0.471-0.47-0.688-0.918-0.519c-0.261,0.099-0.438,0.285-0.485,0.556c-0.045,0.269-0.066,0.544-0.067,0.817
		c-0.008,1.013-0.003,2.025-0.003,3.038c0,0.488-0.01,0.498-0.509,0.498c-0.274,0-0.549,0.003-0.823-0.002
		c-0.205-0.005-0.273-0.074-0.286-0.28c-0.004-0.059-0.002-0.119-0.002-0.18c0.002-1.089,0.006-2.178,0.001-3.267
		c-0.001-0.247-0.018-0.498-0.068-0.74c-0.066-0.311-0.264-0.465-0.551-0.49c-0.359-0.03-0.599,0.095-0.735,0.395
		c-0.128,0.279-0.147,0.58-0.147,0.881c-0.002,1.081-0.001,2.162-0.001,3.243c0,0.068,0.004,0.138-0.003,0.206
		c-0.013,0.151-0.076,0.228-0.222,0.229c-0.386,0.01-0.772,0.01-1.158,0.002c-0.147-0.003-0.206-0.078-0.22-0.23
		c-0.006-0.06-0.002-0.12-0.002-0.181c0-1.826,0-3.654,0.001-5.481c0-0.042-0.001-0.084,0-0.127
		c0.008-0.237,0.069-0.299,0.313-0.304c0.3-0.005,0.601-0.005,0.9,0c0.245,0.003,0.312,0.077,0.318,0.331
		c0.003,0.163,0.001,0.323,0.001,0.486c0.574-1.215,2.455-1.333,3.053,0.094c0.045-0.075,0.084-0.138,0.121-0.202
		c0.527-0.903,1.826-1.113,2.616-0.427c0.331,0.289,0.473,0.664,0.506,1.089c0.013,0.154,0.015,0.309,0.015,0.463
		c0,1.355-0.003,2.709-0.003,4.066c0,0.068,0,0.138-0.003,0.206c-0.009,0.132-0.083,0.215-0.209,0.216
		c-0.395,0.009-0.79,0.009-1.185,0C38.319,37.121,38.245,37.036,38.239,36.906z M41.01,42.785c-0.323,0.202-0.683,0.263-0.92,0.263
		c-0.469,0-0.785-0.058-1.083-0.207c-0.295-0.146-0.515-0.368-0.634-0.679c-0.078-0.199-0.03-0.288,0.174-0.339
		c0.065-0.018,0.134-0.029,0.2-0.042c0.179-0.03,0.25-0.018,0.306,0.15c0.149,0.44,0.973,0.668,1.46,0.382
		c0.163-0.094,0.244-0.242,0.237-0.427c-0.008-0.182-0.108-0.315-0.273-0.371c-0.21-0.07-0.429-0.113-0.646-0.165
		c-0.223-0.057-0.455-0.09-0.67-0.169c-0.482-0.176-0.713-0.515-0.712-0.989c0.002-0.483,0.25-0.841,0.727-1.014
		c0.476-0.172,0.958-0.168,1.435,0.006c0.321,0.116,0.551,0.339,0.682,0.657c0.071,0.174,0.031,0.257-0.143,0.31
		c-0.064,0.021-0.135,0.027-0.2,0.046c-0.154,0.043-0.266,0.002-0.341-0.146c-0.17-0.341-0.68-0.513-1.104-0.333
		c-0.148,0.064-0.263,0.161-0.289,0.335c-0.033,0.23,0.06,0.401,0.3,0.47c0.245,0.069,0.503,0.104,0.753,0.159
		c0.191,0.044,0.387,0.083,0.568,0.152c0.426,0.167,0.649,0.499,0.677,0.947C41.537,42.205,41.381,42.554,41.01,42.785z
		 M45.025,41.17c-0.068,0.007-0.139,0.004-0.207,0.004c-0.608,0-1.217,0-1.824,0c-0.095,0-0.187,0-0.305,0
		c-0.011,0.278,0.024,0.503,0.123,0.716c0.154,0.333,0.422,0.518,0.783,0.543c0.349,0.024,0.604-0.146,0.788-0.438
		c0.058-0.091,0.086-0.232,0.218-0.229c0.159,0.005,0.32,0.04,0.475,0.086c0.038,0.012,0.07,0.11,0.068,0.169
		c0,0.063-0.038,0.131-0.069,0.191c-0.279,0.521-0.727,0.786-1.305,0.831c-0.993,0.076-1.713-0.51-1.862-1.513
		c-0.075-0.492-0.043-0.977,0.155-1.439c0.408-0.941,1.292-1.188,2.075-0.96c0.346,0.102,0.606,0.315,0.793,0.619
		c0.221,0.359,0.313,0.756,0.316,1.175C45.25,41.104,45.199,41.152,45.025,41.17z M45.102,37.071
		c-0.208-0.202-0.396-0.423-0.609-0.656c-0.126,0.107-0.25,0.225-0.387,0.328c-0.658,0.505-1.4,0.59-2.171,0.36
		c-0.629-0.188-0.966-0.667-1.054-1.303c-0.037-0.277-0.035-0.571,0.016-0.846c0.128-0.694,0.561-1.159,1.202-1.434
		c0.43-0.183,0.889-0.251,1.349-0.307c0.263-0.032,0.527-0.059,0.815-0.091c0.011-0.256,0.03-0.5-0.03-0.744
		c-0.063-0.258-0.229-0.423-0.48-0.484c-0.561-0.134-1.065,0.124-1.188,0.618c-0.056,0.225-0.106,0.251-0.329,0.232
		c-0.325-0.029-0.648-0.063-0.972-0.105c-0.185-0.024-0.246-0.121-0.207-0.306c0.131-0.629,0.478-1.105,1.056-1.379
		c0.896-0.425,1.823-0.457,2.748-0.102c0.691,0.264,1.03,0.806,1.05,1.535c0.018,0.745,0.008,1.493,0.01,2.238
		c0.001,0.112,0.001,0.225,0.001,0.337c-0.001,0.309,0.086,0.59,0.271,0.84c0.057,0.077,0.117,0.15,0.166,0.229
		c0.102,0.164,0.096,0.231-0.048,0.356c-0.265,0.232-0.53,0.464-0.801,0.688C45.347,37.212,45.253,37.218,45.102,37.071z
		 M47.672,39.622c-0.025,0.113-0.104,0.146-0.201,0.166c-0.637,0.127-0.973,0.516-0.986,1.172c-0.014,0.558-0.005,1.113-0.005,1.67
		c0,0.388-0.035,0.421-0.429,0.411c-0.043,0-0.086,0.002-0.129-0.005c-0.104-0.018-0.169-0.076-0.177-0.188
		c-0.005-0.06-0.005-0.119-0.005-0.18c0-1.037,0-2.073,0-3.11c0-0.051-0.002-0.102,0.003-0.152c0.005-0.043,0.007-0.094,0.032-0.123
		c0.132-0.16,0.316-0.089,0.479-0.084c0.117,0.005,0.173,0.097,0.17,0.218c0,0.058,0.005,0.116,0.01,0.222
		c0.093-0.106,0.146-0.172,0.204-0.234c0.145-0.154,0.321-0.253,0.528-0.298C47.599,39.015,47.768,39.188,47.672,39.622z
		 M51.312,39.371c-0.371,1.122-0.743,2.243-1.116,3.366c-0.097,0.294-0.111,0.304-0.419,0.302c-0.371-0.001-0.415,0.08-0.576-0.41
		c-0.356-1.073-0.729-2.141-1.094-3.21c-0.016-0.05-0.035-0.098-0.048-0.146c-0.035-0.139,0.01-0.223,0.148-0.236
		c0.152-0.013,0.309-0.011,0.462,0c0.143,0.012,0.19,0.128,0.229,0.246c0.104,0.318,0.209,0.635,0.312,0.952
		c0.177,0.536,0.354,1.071,0.531,1.606c0.018-0.002,0.037-0.005,0.057-0.008c0.077-0.242,0.159-0.484,0.236-0.727
		c0.191-0.596,0.381-1.191,0.573-1.786c0.086-0.268,0.413-0.398,0.658-0.263c0.074,0.041,0.116,0.102,0.086,0.19
		C51.337,39.29,51.326,39.331,51.312,39.371z M51.336,36.909c-1.287-0.588-2.57-0.593-3.855,0.006
		c-0.247,0.115-0.369,0.035-0.374-0.245c-0.005-0.256,0-0.514-0.002-0.771c-0.003-0.259,0.073-0.484,0.225-0.696
		c0.677-0.95,1.348-1.906,2.02-2.859c0.053-0.075,0.099-0.153,0.165-0.256c-0.114-0.005-0.197-0.011-0.28-0.011
		c-0.521-0.001-1.046,0-1.569-0.003c-0.271,0-0.336-0.064-0.341-0.33c-0.004-0.206-0.004-0.413,0-0.618
		c0.005-0.277,0.061-0.334,0.333-0.334c0.936-0.002,1.87-0.002,2.807-0.002c0.283,0,0.566-0.003,0.849,0.002
		c0.22,0.004,0.277,0.061,0.285,0.274c0.006,0.205-0.002,0.412,0.002,0.618c0.003,0.186-0.101,0.325-0.199,0.465
		c-0.585,0.826-1.171,1.651-1.755,2.477c-0.089,0.126-0.175,0.253-0.293,0.421c0.136,0.006,0.232,0.013,0.329,0.014
		c0.573,0.015,1.12,0.131,1.648,0.36c0.282,0.122,0.417,0.304,0.396,0.614c-0.015,0.214,0.003,0.429-0.005,0.644
		C51.713,36.949,51.586,37.023,51.336,36.909z M52.453,41.04c0,0.573,0.002,1.147,0,1.721c-0.002,0.268-0.048,0.313-0.311,0.321
		c-0.438,0.017-0.47-0.014-0.47-0.443c0-1.088,0-2.176,0.002-3.263c0-0.344,0.03-0.373,0.385-0.374c0.025,0,0.052,0,0.077,0.001
		c0.268,0.008,0.314,0.053,0.316,0.315C52.455,39.894,52.453,40.467,52.453,41.04z M52.079,38.548
		c-0.255,0.011-0.489-0.211-0.487-0.462c0-0.247,0.209-0.452,0.462-0.455c0.265-0.004,0.46,0.183,0.467,0.442
		C52.524,38.328,52.332,38.536,52.079,38.548z M52.331,34.765c-0.126-0.783-0.095-1.559,0.181-2.307
		c0.11-0.293,0.262-0.581,0.443-0.836c0.918-1.282,3.039-1.268,3.963,0.081c0.311,0.456,0.493,0.958,0.576,1.499
		c0.042,0.261,0.055,0.527,0.08,0.791c-0.012,0.691-0.144,1.349-0.489,1.952c-0.376,0.657-0.917,1.109-1.672,1.256
		c-1.006,0.194-1.963-0.132-2.556-1.026C52.574,35.743,52.413,35.27,52.331,34.765z M54.605,43.043
		c-0.718,0.033-1.251-0.293-1.511-0.964c-0.264-0.683-0.266-1.377,0.013-2.057c0.305-0.74,0.934-1.072,1.722-0.935
		c0.571,0.1,1.078,0.647,1.127,1.223c0.015,0.164-0.045,0.24-0.21,0.258c-0.076,0.007-0.154,0-0.231,0
		c-0.138,0-0.224-0.068-0.263-0.2c-0.021-0.073-0.038-0.15-0.068-0.22c-0.116-0.274-0.316-0.451-0.619-0.472
		c-0.295-0.02-0.51,0.126-0.661,0.369c-0.129,0.207-0.188,0.441-0.213,0.682c-0.011,0.11-0.011,0.223-0.016,0.334
		c0.006,0.363,0.048,0.722,0.253,1.035c0.288,0.441,0.864,0.439,1.154-0.001c0.051-0.078,0.089-0.166,0.123-0.254
		c0.114-0.302,0.306-0.396,0.614-0.304c0.121,0.036,0.154,0.116,0.142,0.235C55.891,42.437,55.278,43.011,54.605,43.043z
		 M59.441,41.17c-0.068,0.007-0.137,0.004-0.205,0.004c-0.608,0-1.217,0-1.826,0c-0.093,0-0.185,0-0.303,0
		c-0.018,0.313,0.03,0.571,0.166,0.806c0.344,0.594,1.14,0.611,1.511,0.039c0.023-0.036,0.044-0.074,0.063-0.112
		c0.061-0.126,0.162-0.169,0.296-0.146c0.067,0.012,0.136,0.024,0.202,0.04c0.242,0.058,0.279,0.132,0.168,0.363
		c-0.27,0.552-0.729,0.831-1.325,0.879c-0.939,0.073-1.604-0.417-1.826-1.338c-0.132-0.548-0.104-1.091,0.118-1.611
		c0.399-0.94,1.286-1.192,2.072-0.963c0.336,0.099,0.593,0.306,0.779,0.597c0.233,0.363,0.328,0.77,0.334,1.197
		C59.668,41.102,59.617,41.152,59.441,41.17z M62.561,42.812c-0.312,0.182-0.657,0.236-0.952,0.237
		c-0.401-0.003-0.728-0.061-1.03-0.22c-0.289-0.154-0.508-0.377-0.617-0.692c-0.062-0.177-0.021-0.257,0.154-0.308
		c0.066-0.019,0.135-0.026,0.202-0.039c0.213-0.042,0.248-0.03,0.343,0.163c0.087,0.181,0.224,0.302,0.402,0.378
		c0.312,0.132,0.632,0.152,0.952,0.03c0.149-0.058,0.263-0.159,0.312-0.318c0.068-0.222-0.018-0.437-0.252-0.524
		c-0.213-0.081-0.444-0.116-0.669-0.173c-0.23-0.06-0.473-0.096-0.692-0.185c-0.546-0.22-0.766-0.673-0.636-1.246
		c0.065-0.284,0.229-0.506,0.482-0.635c0.613-0.311,1.237-0.311,1.851,0.005c0.22,0.113,0.369,0.304,0.467,0.53
		c0.086,0.2,0.044,0.288-0.159,0.342c-0.05,0.015-0.101,0.022-0.151,0.032c-0.215,0.046-0.242,0.036-0.363-0.141
		c-0.252-0.369-0.705-0.504-1.108-0.331c-0.208,0.09-0.316,0.26-0.289,0.464c0.025,0.192,0.146,0.307,0.327,0.35
		c0.242,0.057,0.487,0.096,0.729,0.15c0.184,0.041,0.371,0.078,0.546,0.143c0.429,0.16,0.661,0.483,0.698,0.932
		C63.144,42.213,62.965,42.578,62.561,42.812z M62.861,37.129c-0.309,0.002-0.617,0.002-0.926-0.002
		c-0.277-0.001-0.333-0.054-0.335-0.331c-0.002-1.03,0.003-2.061,0-3.088c0-0.258-0.01-0.516-0.027-0.772
		c-0.008-0.118-0.033-0.239-0.074-0.35c-0.153-0.422-0.61-0.567-0.989-0.322c-0.164,0.106-0.268,0.261-0.336,0.443
		c-0.111,0.293-0.147,0.599-0.147,0.909c0,1.021,0,2.042-0.002,3.063c0,0.06,0.003,0.12,0,0.181
		c-0.011,0.193-0.075,0.263-0.27,0.267c-0.359,0.006-0.72,0.006-1.081,0c-0.182-0.004-0.238-0.07-0.251-0.254
		c-0.005-0.061-0.002-0.12-0.002-0.181c0-1.811-0.002-3.621-0.002-5.433c0-0.051-0.001-0.102,0-0.154
		c0.009-0.236,0.07-0.299,0.312-0.304c0.301-0.005,0.602-0.005,0.901,0c0.238,0.003,0.298,0.067,0.303,0.311
		c0.001,0.213,0,0.425,0,0.637c0.018,0.003,0.035,0.006,0.051,0.01c0.066-0.118,0.127-0.239,0.2-0.355
		c0.4-0.634,0.964-0.803,1.694-0.693c0.657,0.099,1.102,0.548,1.23,1.218c0.058,0.302,0.093,0.613,0.096,0.92
		c0.012,1.312,0.007,2.625,0.005,3.938C63.212,37.075,63.158,37.126,62.861,37.129z"/>
	<path fill="#FFFFFF" d="M35.241,39.786c-0.241,0.201-0.385,0.466-0.402,0.775c-0.018,0.308-0.019,0.618,0.006,0.924
		c0.015,0.174,0.074,0.355,0.158,0.51c0.15,0.275,0.406,0.425,0.718,0.417c0.302-0.006,0.499-0.194,0.627-0.462
		c0.135-0.285,0.164-0.591,0.184-0.899c-0.028-0.386-0.057-0.771-0.275-1.108C36.011,39.562,35.588,39.497,35.241,39.786z"/>
	<path fill="#FFFFFF" d="M28.034,34.192c-0.658,0.229-0.813,0.739-0.697,1.308c0.086,0.424,0.47,0.631,0.885,0.503
		c0.372-0.114,0.572-0.396,0.692-0.74c0.133-0.379,0.114-0.772,0.095-1.161C28.734,34.048,28.334,34.088,28.034,34.192z"/>
</g>
</svg>
