<?xml version="1.0" encoding="utf-8"?>
<!-- Generator: Adobe Illustrator 16.0.4, SVG Export Plug-In . SVG Version: 6.00 Build 0)  -->
<!DOCTYPE svg PUBLIC "-//W3C//DTD SVG 1.1//EN" "http://www.w3.org/Graphics/SVG/1.1/DTD/svg11.dtd">
<svg version="1.1" id="Layer_1" xmlns="http://www.w3.org/2000/svg" xmlns:xlink="http://www.w3.org/1999/xlink" x="0px" y="0px"
	 width="72px" height="72px" viewBox="0 0 72 72" enable-background="new 0 0 72 72" xml:space="preserve">
<g>
	<path fill="#FFFFFF" d="M27.451,52.228c0,0.312,0.285,0.394,0.547,0.376c0.308-0.021,0.627-0.138,0.638-0.491
		c0.011-0.322-0.297-0.349-0.557-0.367C27.78,51.788,27.451,51.849,27.451,52.228z"/>
	<path fill="#FFFFFF" d="M36,0.29L5.075,18.145v35.71l23.754,13.714c-0.006-5.603-0.016-11.491-0.013-12.36
		c0.001-0.349-0.122-0.437-0.449-0.36c-1.143,0.271-2.309,0.33-3.473,0.237c-2.752-0.22-4.874-1.367-5.975-4.06
		c-0.66-1.614-1.636-3.001-3.179-3.925c-0.289-0.172-0.545-0.421-0.764-0.679c-0.316-0.367-0.236-0.66,0.246-0.821
		c0.471-0.157,0.944-0.15,1.419-0.047c1.768,0.384,3.007,1.479,3.918,2.979c1.894,3.117,4.88,3.608,7.973,2.427
		c0.162-0.062,0.367-0.097,0.402-0.323c0.205-1.354,0.744-2.56,1.703-3.624c-1.078-0.2-2.069-0.349-3.043-0.573
		c-3.165-0.725-5.94-2.098-7.8-4.896c-1.43-2.15-1.942-4.581-2.153-7.12c-0.279-3.336,0.426-6.351,2.633-8.935
		c0.196-0.231,0.256-0.425,0.158-0.73c-0.713-2.238-0.523-4.452,0.212-6.652c0.146-0.438,0.363-0.659,0.834-0.596
		c0.271,0.036,0.547,0.036,0.817,0.081c2.233,0.371,4.165,1.442,6.035,2.643c0.306,0.197,0.573,0.26,0.946,0.166
		c4.492-1.131,8.991-1.126,13.482,0.005c0.382,0.097,0.646,0.017,0.942-0.184c0.968-0.649,1.982-1.222,3.047-1.696
		c1.234-0.549,2.499-0.998,3.877-1.017c0.373-0.005,0.57,0.125,0.699,0.494c0.774,2.214,0.978,4.447,0.27,6.715
		c-0.098,0.316-0.063,0.535,0.161,0.793c0.908,1.043,1.586,2.222,2.044,3.532c0.801,2.289,0.718,4.62,0.396,6.973
		c-0.725,5.277-3.602,8.691-8.75,10.153c-1.313,0.374-2.656,0.603-4.132,0.778c0.402,0.525,0.759,0.912,1.003,1.379
		c0.697,1.331,0.9,2.762,0.892,4.242c-0.008,1.411-0.014,8.584-0.017,14.993l23.735-13.704v-35.71L36,0.29z"/>
	<path fill="#FFFFFF" d="M22.918,51.968c-0.002,0.404,0.308,0.513,0.65,0.534c0.237,0.015,0.51-0.021,0.507-0.312
		c-0.003-0.389-0.314-0.505-0.61-0.541C23.183,51.648,22.921,51.671,22.918,51.968z"/>
	<path fill="#FFFFFF" d="M25.249,52.465c0.028,0.34,0.329,0.42,0.61,0.405c0.278-0.015,0.594-0.112,0.576-0.452
		c-0.018-0.339-0.336-0.379-0.633-0.39C25.54,52.066,25.218,52.087,25.249,52.465z"/>
	<path fill="#FFFFFF" d="M18.774,47.299c-0.205,0.031-0.288,0.161-0.267,0.337c0.037,0.312,0.227,0.49,0.542,0.492
		c0.184,0.001,0.31-0.115,0.268-0.308C19.254,47.529,19.058,47.357,18.774,47.299z"/>
	<path fill="#FFFFFF" d="M20.977,50.778c0.042,0.389,0.278,0.598,0.663,0.629c0.251,0.021,0.372-0.111,0.373-0.382
		c-0.087-0.336-0.284-0.582-0.676-0.609C21.085,50.398,20.95,50.527,20.977,50.778z"/>
	<path fill="#FFFFFF" d="M17.316,46.607c0.054,0.229,0.26,0.305,0.471,0.312c0.134,0.006,0.304-0.04,0.287-0.211
		c-0.025-0.266-0.237-0.355-0.503-0.402C17.44,46.352,17.268,46.401,17.316,46.607z"/>
	<path fill="#FFFFFF" d="M19.619,49.094c-0.003,0.333,0.154,0.574,0.483,0.653c0.253,0.062,0.405-0.076,0.391-0.33
		c-0.018-0.323-0.189-0.549-0.491-0.633C19.753,48.769,19.622,48.872,19.619,49.094z"/>
</g>
</svg>
