<?xml version="1.0" encoding="utf-8"?>
<!-- Generator: Adobe Illustrator 16.0.4, SVG Export Plug-In . SVG Version: 6.00 Build 0)  -->
<!DOCTYPE svg PUBLIC "-//W3C//DTD SVG 1.1//EN" "http://www.w3.org/Graphics/SVG/1.1/DTD/svg11.dtd">
<svg version="1.1" id="Layer_1" xmlns="http://www.w3.org/2000/svg" xmlns:xlink="http://www.w3.org/1999/xlink" x="0px" y="0px"
	 width="72px" height="72px" viewBox="0 0 72 72" enable-background="new 0 0 72 72" xml:space="preserve">
<path fill="#996699" d="M36,0.29L5.075,18.145v35.71L36,71.71l30.925-17.854V18.146L36,0.29z M43.272,57.025
	c-0.332,0.115-0.664,0.199-1.014,0.125c-0.53-0.112-0.807-0.482-0.809-1.111c0-1.889,0.004-3.779,0.016-5.667
	c0.007-1.124-0.147-2.209-0.675-3.219c-0.188-0.356-0.457-0.647-0.763-1.046c1.12-0.134,2.139-0.31,3.135-0.591
	c3.904-1.108,6.089-3.701,6.638-7.702c0.243-1.785,0.309-3.555-0.3-5.29c-0.349-0.994-0.863-1.89-1.551-2.681
	c-0.17-0.195-0.196-0.361-0.122-0.601c0.54-1.721,0.383-3.414-0.203-5.095c-0.101-0.279-0.248-0.378-0.53-0.373
	c-1.049,0.013-2.005,0.354-2.942,0.771c-0.809,0.359-1.577,0.793-2.312,1.287c-0.226,0.152-0.426,0.211-0.715,0.139
	c-3.407-0.858-6.821-0.862-10.228-0.004c-0.283,0.072-0.486,0.023-0.718-0.125c-1.419-0.911-2.883-1.724-4.579-2.005
	c-0.204-0.034-0.413-0.034-0.619-0.062c-0.356-0.047-0.521,0.119-0.633,0.452c-0.558,1.67-0.702,3.348-0.161,5.047
	c0.075,0.23,0.029,0.378-0.121,0.554c-1.674,1.96-2.209,4.247-1.997,6.779c0.161,1.928,0.547,3.768,1.633,5.403
	c1.41,2.122,3.517,3.163,5.917,3.714c0.739,0.169,1.491,0.281,2.31,0.433c-0.729,0.808-1.137,1.722-1.293,2.751
	c-0.026,0.172-0.182,0.198-0.304,0.244c-2.347,0.897-4.611,0.524-6.048-1.841c-0.692-1.138-1.631-1.97-2.973-2.26
	c-0.361-0.078-0.72-0.083-1.077,0.034c-0.365,0.124-0.426,0.347-0.187,0.625c0.167,0.194,0.361,0.386,0.581,0.515
	c1.169,0.701,1.91,1.753,2.411,2.977c0.836,2.043,2.445,2.915,4.533,3.08c0.883,0.071,1.768,0.025,2.636-0.18
	c0.248-0.058,0.341,0.01,0.34,0.274c-0.003,1.246,0.025,2.496,0.006,3.743c-0.012,0.844-0.711,1.261-1.6,0.967
	c-2.223-0.728-4.274-1.798-6.134-3.215c-4.693-3.572-7.627-8.264-8.461-14.104c-1.063-7.461,1.221-13.862,6.673-19.066
	c3.274-3.126,7.223-4.984,11.697-5.641c11.929-1.749,22.642,6.181,24.769,17.348C59.534,43.085,53.527,53.438,43.272,57.025z
	 M30.412,50.026c-0.008,0.27-0.25,0.357-0.483,0.372c-0.199,0.016-0.415-0.048-0.415-0.283c0-0.289,0.249-0.334,0.476-0.368
	C30.188,49.763,30.42,49.781,30.412,50.026z M28.743,50.258c0.013,0.26-0.227,0.334-0.438,0.344
	c-0.213,0.011-0.442-0.051-0.463-0.306c-0.024-0.288,0.22-0.305,0.42-0.331C28.488,49.973,28.728,50.003,28.743,50.258z
	 M26.953,50.087c0.001,0.219-0.205,0.247-0.386,0.235c-0.258-0.015-0.495-0.099-0.493-0.404c0.002-0.227,0.202-0.244,0.416-0.244
	C26.713,49.704,26.95,49.793,26.953,50.087z M25.389,49.202c-0.002,0.206-0.094,0.305-0.284,0.289
	c-0.292-0.022-0.471-0.183-0.503-0.477c-0.02-0.19,0.083-0.289,0.273-0.273C25.172,48.76,25.322,48.946,25.389,49.202z
	 M24.234,47.982c0.011,0.192-0.104,0.297-0.296,0.252c-0.25-0.062-0.369-0.244-0.367-0.495c0.002-0.17,0.102-0.248,0.291-0.237
	C24.091,47.565,24.221,47.737,24.234,47.982z M23.343,46.771c0.032,0.147-0.064,0.232-0.203,0.232c-0.241,0-0.384-0.136-0.412-0.373
	c-0.015-0.132,0.047-0.231,0.202-0.256C23.146,46.42,23.296,46.549,23.343,46.771z M22.4,45.928
	c0.011,0.131-0.116,0.164-0.218,0.161c-0.16-0.008-0.316-0.065-0.357-0.237c-0.037-0.155,0.094-0.193,0.194-0.229
	C22.22,45.658,22.381,45.727,22.4,45.928z"/>
</svg>
