<?xml version="1.0" encoding="utf-8"?>
<!-- Generator: Adobe Illustrator 16.0.4, SVG Export Plug-In . SVG Version: 6.00 Build 0)  -->
<!DOCTYPE svg PUBLIC "-//W3C//DTD SVG 1.1//EN" "http://www.w3.org/Graphics/SVG/1.1/DTD/svg11.dtd">
<svg version="1.1" id="Layer_1" xmlns="http://www.w3.org/2000/svg" xmlns:xlink="http://www.w3.org/1999/xlink" x="0px" y="0px"
	 width="72px" height="72px" viewBox="0 0 72 72" enable-background="new 0 0 72 72" xml:space="preserve">
<path fill="#996699" d="M36,0.29L5.075,18.145v35.71L36,71.71l30.925-17.854V18.146L36,0.29z M26.617,51.294
	c-2.311-0.018-4.621-0.017-6.932-0.001c-0.363,0.003-0.462-0.097-0.461-0.462c0.011-7.482,0.008-14.963,0.008-22.445
	c0-0.122,0-0.244,0-0.414c2.631,0,5.197,0,7.811,0c0.009,0.16,0.025,0.305,0.025,0.45c0.001,7.468-0.001,14.935,0.008,22.404
	C27.077,51.186,26.987,51.297,26.617,51.294z M24.908,24.467c-1.369,0.475-2.722,0.418-4.036-0.225
	c-1.579-0.773-2.448-2.863-1.954-4.553c0.574-1.961,2.265-2.958,4.393-2.984c1.534,0.058,2.903,0.598,3.746,2.103
	C28.264,20.965,27.251,23.653,24.908,24.467z M54.73,51.293c-2.296-0.016-4.594-0.017-6.889,0.001
	c-0.393,0.003-0.478-0.123-0.477-0.492c0.012-3.933,0.012-7.864,0.005-11.797c-0.002-1.158-0.098-2.298-0.567-3.388
	c-0.694-1.605-2.171-2.225-3.758-2.054c-2.216,0.24-3.809,1.939-3.832,4.171c-0.046,4.318-0.027,8.636-0.033,12.953
	c-0.002,0.596-0.002,0.597-0.607,0.597c-2.228,0-4.455,0-6.683,0c-0.162,0-0.323,0-0.503,0c0-7.788,0-15.525,0-23.312
	c0.145-0.008,0.29-0.022,0.434-0.022c2.298-0.002,4.593,0.008,6.889-0.01c0.391-0.003,0.493,0.119,0.48,0.491
	c-0.025,0.742-0.009,1.485-0.006,2.228c0,0.131,0.012,0.263,0.018,0.43c0.54-0.603,0.998-1.189,1.532-1.695
	c1.286-1.217,2.854-1.826,4.609-1.946c2.177-0.149,4.247,0.197,6.076,1.482c1.517,1.065,2.476,2.536,3.065,4.272
	c0.53,1.553,0.713,3.16,0.72,4.787c0.018,4.276,0.001,8.552,0.016,12.828C55.221,51.21,55.099,51.294,54.73,51.293z"/>
</svg>
