<?xml version="1.0" encoding="utf-8"?>
<!-- Generator: Adobe Illustrator 16.0.4, SVG Export Plug-In . SVG Version: 6.00 Build 0)  -->
<!DOCTYPE svg PUBLIC "-//W3C//DTD SVG 1.1//EN" "http://www.w3.org/Graphics/SVG/1.1/DTD/svg11.dtd">
<svg version="1.1" id="Layer_1" xmlns="http://www.w3.org/2000/svg" xmlns:xlink="http://www.w3.org/1999/xlink" x="0px" y="0px"
	 width="72px" height="72px" viewBox="0 0 72 72" enable-background="new 0 0 72 72" xml:space="preserve">
<g>
	<path fill="#FFFFFF" d="M58.737,32.668c-0.473-0.386-1.022-0.574-1.681-0.574s-1.207,0.186-1.677,0.567
		c-0.368,0.298-0.622,0.664-0.771,1.111h4.896C59.359,33.334,59.106,32.97,58.737,32.668z"/>
	<path fill="#FFFFFF" d="M24.898,32.668c-0.473-0.386-1.022-0.574-1.681-0.574c-0.659,0-1.208,0.186-1.678,0.567
		c-0.368,0.298-0.622,0.665-0.77,1.111h4.896C25.521,33.334,25.267,32.97,24.898,32.668z"/>
	<path fill="#FFFFFF" d="M36,0.29L5.075,18.145v35.71L36,71.71l30.925-17.854V18.146L36,0.29z M18.526,32.742
		c-0.056-0.028-0.125-0.074-0.28-0.23c-0.183-0.183-0.302-0.262-0.37-0.296c-0.083-0.042-0.16-0.062-0.233-0.062
		c-0.214,0-0.492,0.096-0.826,0.285c-0.348,0.198-0.964,0.689-1.833,1.462v2.953h2.443c0.239,0,0.417,0.056,0.544,0.169
		c0.133,0.117,0.205,0.28,0.205,0.469c0,0.181-0.07,0.341-0.201,0.462c-0.127,0.118-0.307,0.176-0.548,0.176h-4.904
		c-0.234,0-0.41-0.056-0.537-0.169c-0.133-0.117-0.205-0.277-0.205-0.461c0-0.176,0.069-0.332,0.198-0.452
		c0.125-0.115,0.303-0.171,0.543-0.171h1.186v-4.559H12.88c-0.236,0-0.413-0.058-0.541-0.176c-0.131-0.122-0.201-0.284-0.201-0.47
		c0-0.178,0.067-0.336,0.193-0.458s0.306-0.18,0.549-0.18h2.104v1.185c0.572-0.488,1.018-0.813,1.352-0.987
		c0.957-0.499,1.797-0.465,2.508,0.092c0.424,0.332,0.605,0.578,0.605,0.825c0,0.181-0.065,0.341-0.188,0.464
		C19.071,32.804,18.751,32.854,18.526,32.742z M26.841,37.261c-0.271,0.282-0.727,0.536-1.39,0.772
		c-0.639,0.227-1.306,0.342-1.98,0.342c-1.155,0-2.134-0.386-2.91-1.146c-0.778-0.762-1.173-1.698-1.173-2.781
		c0-0.996,0.373-1.86,1.107-2.571c0.731-0.707,1.647-1.066,2.723-1.066c1.107,0,2.034,0.37,2.753,1.098
		c0.72,0.728,1.08,1.678,1.069,2.825l-0.003,0.322h-6.3c0.139,0.561,0.415,1.016,0.837,1.382c0.802,0.697,1.955,0.843,3.269,0.444
		c0.468-0.14,0.853-0.327,1.144-0.555c0.331-0.26,0.664-0.224,0.89,0.014c0.117,0.12,0.179,0.274,0.179,0.443
		C27.055,36.904,27.018,37.083,26.841,37.261z M33.425,37.682c-0.568,0.46-1.393,0.693-2.452,0.693c-0.852,0-1.59-0.179-2.203-0.533
		c-0.045,0.07-0.104,0.131-0.179,0.181c-0.266,0.176-0.612,0.13-0.819-0.095c-0.117-0.127-0.175-0.304-0.175-0.54v-1.287
		c0-0.233,0.055-0.409,0.167-0.536c0.231-0.261,0.67-0.273,0.926-0.019c0.086,0.086,0.189,0.239,0.189,0.48
		c0,0.158,0.035,0.282,0.107,0.38c0.138,0.189,0.371,0.352,0.692,0.483c0.338,0.14,0.766,0.21,1.271,0.21
		c0.737,0,1.282-0.13,1.619-0.387c0.31-0.236,0.467-0.472,0.467-0.702c0-0.169-0.045-0.42-0.44-0.649
		c-0.364-0.208-0.917-0.352-1.645-0.427c-0.812-0.083-1.385-0.191-1.753-0.332c-0.396-0.151-0.71-0.384-0.936-0.693
		c-0.229-0.313-0.345-0.658-0.345-1.025c0-0.655,0.319-1.179,0.947-1.555c0.575-0.344,1.265-0.519,2.05-0.519
		c0.75,0,1.397,0.152,1.932,0.453c0.008-0.01,0.016-0.019,0.024-0.028c0.247-0.266,0.691-0.259,0.932,0
		c0.118,0.128,0.176,0.307,0.176,0.548v1.071c0,0.233-0.059,0.415-0.176,0.541c-0.231,0.25-0.658,0.267-0.906,0.029
		c-0.117-0.112-0.184-0.272-0.2-0.477c-0.02-0.196-0.123-0.356-0.323-0.496c-0.348-0.237-0.83-0.358-1.429-0.358
		c-0.625,0-1.109,0.122-1.438,0.361C29.2,32.679,29.2,32.852,29.2,32.908c0,0.111,0.037,0.279,0.357,0.462
		c0.139,0.081,0.461,0.193,1.229,0.279c0.899,0.098,1.515,0.208,1.88,0.336c0.541,0.195,0.952,0.474,1.225,0.831
		c0.279,0.364,0.42,0.766,0.42,1.194C34.312,36.643,34.014,37.204,33.425,37.682z M42.715,37.954
		c-0.128,0.118-0.305,0.176-0.541,0.176h-1.479v-0.563c-0.762,0.537-1.581,0.809-2.442,0.809c-0.699,0-1.247-0.201-1.627-0.599
		c-0.47-0.499-0.708-1.087-0.708-1.75v-3.708h-0.516c-0.236,0-0.413-0.058-0.541-0.176c-0.131-0.122-0.201-0.284-0.201-0.47
		c0-0.181,0.07-0.34,0.201-0.462c0.128-0.118,0.305-0.176,0.541-0.176h1.792v4.991c0,0.321,0.096,0.575,0.294,0.777
		c0.195,0.199,0.437,0.296,0.735,0.296c0.884,0,1.715-0.403,2.472-1.201v-3.581h-0.827c-0.232,0-0.415-0.059-0.541-0.176
		c-0.132-0.122-0.202-0.285-0.202-0.47c0-0.18,0.07-0.34,0.202-0.462c0.126-0.117,0.309-0.176,0.541-0.176h2.103v5.819h0.204
		c0.234,0,0.41,0.056,0.537,0.169c0.133,0.116,0.204,0.279,0.204,0.469C42.915,37.674,42.846,37.833,42.715,37.954z M52.619,37.954
		c-0.128,0.118-0.305,0.176-0.54,0.176h-1.479v-5.259c0-0.234-0.066-0.42-0.204-0.568c-0.264-0.285-0.575-0.275-0.972-0.007
		c-0.14,0.095-0.377,0.317-0.72,0.835v3.723h0.196c0.232,0,0.407,0.055,0.535,0.167c0.134,0.12,0.207,0.286,0.207,0.471
		c0,0.179-0.069,0.338-0.199,0.461c-0.132,0.12-0.309,0.177-0.543,0.177h-1.479v-5.214c0-0.25-0.068-0.448-0.21-0.604
		c-0.177-0.194-0.323-0.217-0.418-0.217c-0.159,0-0.317,0.053-0.483,0.162c-0.248,0.167-0.52,0.462-0.806,0.878v3.72h0.203
		c0.232,0,0.407,0.055,0.535,0.167c0.134,0.12,0.207,0.286,0.207,0.471c0,0.179-0.069,0.338-0.199,0.461
		c-0.132,0.12-0.309,0.177-0.543,0.177h-1.682c-0.236,0-0.413-0.058-0.541-0.176c-0.132-0.121-0.201-0.281-0.201-0.462
		c0-0.188,0.072-0.352,0.207-0.471c0.125-0.111,0.301-0.167,0.535-0.167h0.203v-4.536h-0.203c-0.236,0-0.413-0.058-0.541-0.176
		c-0.132-0.122-0.201-0.284-0.201-0.47c0-0.181,0.069-0.34,0.201-0.462c0.128-0.118,0.305-0.176,0.541-0.176h1.479v0.231
		c0.792-0.575,1.684-0.58,2.311-0.138c0.178,0.125,0.337,0.289,0.478,0.489c0.205-0.209,0.413-0.377,0.623-0.502
		c0.858-0.515,1.803-0.35,2.345,0.241c0.407,0.436,0.614,0.926,0.614,1.455v4.043h0.203c0.233,0,0.409,0.056,0.536,0.169
		c0.133,0.117,0.205,0.28,0.205,0.469C52.82,37.673,52.751,37.833,52.619,37.954z M60.682,37.26
		c-0.272,0.284-0.729,0.538-1.392,0.773c-0.639,0.227-1.305,0.342-1.98,0.342c-1.155,0-2.134-0.386-2.91-1.146
		c-0.778-0.762-1.173-1.698-1.173-2.781c0-0.996,0.373-1.86,1.108-2.571c0.73-0.707,1.646-1.066,2.722-1.066
		c1.107,0,2.034,0.37,2.755,1.098c0.719,0.728,1.079,1.679,1.068,2.825l-0.003,0.322h-6.301c0.14,0.562,0.415,1.017,0.837,1.382
		c0.803,0.698,1.955,0.843,3.27,0.444c0.469-0.141,0.854-0.327,1.144-0.555c0.328-0.26,0.664-0.224,0.89,0.014
		c0.116,0.12,0.179,0.274,0.179,0.443C60.895,36.903,60.857,37.081,60.682,37.26z"/>
</g>
</svg>
